  0
SECTION
  2
HEADER
  9
$ACADVER
  1
AC1006
  9
$EXTMIN
 10
0.000000
 20
0.000000
 30
0.000000
  9
$EXTMAX
 10
2263.000000
 20
1338.000000
 30
0.000000
  0
ENDSEC
  0
SECTION
  2
ENTITIES
  0
POLYLINE
  8
0
 66
1
 70
1
  0
VERTEX
  8
0
 10
143.500000
 20
1293.296895
 42
0.029573
  0
VERTEX
  8
0
 10
132.908980
 20
1291.925855
 42
0.020260
  0
VERTEX
  8
0
 10
121.098407
 20
1289.180640
 42
0.020045
  0
VERTEX
  8
0
 10
109.354108
 20
1285.431800
 42
0.025985
  0
VERTEX
  8
0
 10
98.948587
 20
1281.019827
 42
0.019021
  0
VERTEX
  8
0
 10
91.338421
 20
1276.950656
 42
0.021250
  0
VERTEX
  8
0
 10
84.343968
 20
1272.452084
 42
0.020711
  0
VERTEX
  8
0
 10
77.604508
 20
1267.270372
 42
0.016429
  0
VERTEX
  8
0
 10
70.757925
 20
1261.146511
 42
0.035007
  0
VERTEX
  8
0
 10
58.847347
 20
1248.055520
 42
0.041535
  0
VERTEX
  8
0
 10
49.615906
 20
1234.124240
 42
0.039558
  0
VERTEX
  8
0
 10
42.484960
 20
1218.288676
 42
0.027376
  0
VERTEX
  8
0
 10
36.877758
 20
1199.450471
 42
0.000000
  0
VERTEX
  8
0
 10
34.500000
 20
1189.500000
 42
0.000000
  0
VERTEX
  8
0
 10
34.500000
 20
669.000000
 42
0.000055
  0
VERTEX
  8
0
 10
34.536815
 20
335.235324
 42
0.000825
  0
VERTEX
  8
0
 10
34.754736
 20
218.693432
 42
0.000733
  0
VERTEX
  8
0
 10
35.090891
 20
151.255851
 42
0.055552
  0
VERTEX
  8
0
 10
36.359890
 20
140.500000
 42
0.020353
  0
VERTEX
  8
0
 10
40.347955
 20
126.041065
 42
0.025157
  0
VERTEX
  8
0
 10
45.271855
 20
112.964830
 42
0.026945
  0
VERTEX
  8
0
 10
51.130002
 20
101.267977
 42
0.031974
  0
VERTEX
  8
0
 10
57.921976
 20
90.948915
 42
0.025518
  0
VERTEX
  8
0
 10
63.447571
 20
84.349520
 42
0.014685
  0
VERTEX
  8
0
 10
70.722963
 20
76.957693
 42
0.014700
  0
VERTEX
  8
0
 10
78.367726
 20
70.053056
 42
0.027162
  0
VERTEX
  8
0
 10
85.025836
 20
64.982455
 42
0.028238
  0
VERTEX
  8
0
 10
94.998971
 20
59.003028
 42
0.024467
  0
VERTEX
  8
0
 10
106.063568
 20
53.865414
 42
0.023367
  0
VERTEX
  8
0
 10
118.103691
 20
49.619161
 42
0.020610
  0
VERTEX
  8
0
 10
131.000000
 20
46.310849
 42
0.051863
  0
VERTEX
  8
0
 10
142.819020
 20
45.050106
 42
0.000206
  0
VERTEX
  8
0
 10
276.690166
 20
44.752599
 42
0.000423
  0
VERTEX
  8
0
 10
500.486819
 20
44.536960
 42
0.000029
  0
VERTEX
  8
0
 10
1131.500000
 20
44.500000
 42
0.000000
  0
VERTEX
  8
0
 10
2123.500000
 20
44.500000
 42
0.000000
  0
VERTEX
  8
0
 10
2134.272831
 20
46.817339
 42
0.010625
  0
VERTEX
  8
0
 10
2143.169340
 20
48.929797
 42
0.015103
  0
VERTEX
  8
0
 10
2150.970022
 20
51.211688
 42
0.016843
  0
VERTEX
  8
0
 10
2157.860503
 20
53.714987
 42
0.021652
  0
VERTEX
  8
0
 10
2164.000000
 20
56.496973
 42
0.033143
  0
VERTEX
  8
0
 10
2174.973797
 20
63.000816
 42
0.024173
  0
VERTEX
  8
0
 10
2186.266437
 20
71.578594
 42
0.024143
  0
VERTEX
  8
0
 10
2196.697969
 20
81.223238
 42
0.032681
  0
VERTEX
  8
0
 10
2205.073686
 20
90.948915
 42
0.032524
  0
VERTEX
  8
0
 10
2212.055778
 20
101.592019
 42
0.025495
  0
VERTEX
  8
0
 10
2218.243720
 20
113.938752
 42
0.025170
  0
VERTEX
  8
0
 10
2223.228761
 20
127.051908
 42
0.028993
  0
VERTEX
  8
0
 10
2226.603777
 20
140.000000
 42
0.047488
  0
VERTEX
  8
0
 10
2227.890396
 20
152.556778
 42
0.000904
  0
VERTEX
  8
0
 10
2228.244516
 20
218.213947
 42
0.000842
  0
VERTEX
  8
0
 10
2228.463562
 20
333.449561
 42
0.000054
  0
VERTEX
  8
0
 10
2228.500000
 20
669.000000
 42
0.000054
  0
VERTEX
  8
0
 10
2228.463562
 20
1004.550439
 42
0.000842
  0
VERTEX
  8
0
 10
2228.244516
 20
1119.786053
 42
0.000904
  0
VERTEX
  8
0
 10
2227.890396
 20
1185.443222
 42
0.047488
  0
VERTEX
  8
0
 10
2226.603777
 20
1198.000000
 42
0.028993
  0
VERTEX
  8
0
 10
2223.228761
 20
1210.948092
 42
0.025170
  0
VERTEX
  8
0
 10
2218.243720
 20
1224.061248
 42
0.025495
  0
VERTEX
  8
0
 10
2212.055778
 20
1236.407981
 42
0.032524
  0
VERTEX
  8
0
 10
2205.073686
 20
1247.051085
 42
0.025927
  0
VERTEX
  8
0
 10
2199.357139
 20
1253.873058
 42
0.015846
  0
VERTEX
  8
0
 10
2191.961347
 20
1261.334258
 42
0.015830
  0
VERTEX
  8
0
 10
2184.086737
 20
1268.331244
 42
0.025332
  0
VERTEX
  8
0
 10
2176.895919
 20
1273.731564
 42
0.020552
  0
VERTEX
  8
0
 10
2167.160733
 20
1279.732331
 42
0.029093
  0
VERTEX
  8
0
 10
2158.010345
 20
1284.187772
 42
0.026870
  0
VERTEX
  8
0
 10
2147.866735
 20
1287.789935
 42
0.014352
  0
VERTEX
  8
0
 10
2135.000000
 20
1291.196185
 42
0.000000
  0
VERTEX
  8
0
 10
2125.500000
 20
1293.421497
 42
0.000000
  0
VERTEX
  8
0
 10
1137.000000
 20
1293.533497
 42
0.000033
  0
VERTEX
  8
0
 10
757.617774
 20
1293.551375
 42
0.000055
  0
VERTEX
  8
0
 10
437.403125
 20
1293.510195
 42
0.000002
  0
VERTEX
  8
0
 10
147.600548
 20
1293.440170
 42
0.017342
  0
SEQEND
  0
POLYLINE
  8
0
 66
1
 70
1
  0
VERTEX
  8
0
 10
2133.975196
 20
1288.722824
 42
-0.029768
  0
VERTEX
  8
0
 10
2151.133482
 20
1283.710334
 42
-0.037832
  0
VERTEX
  8
0
 10
2166.198939
 20
1276.993927
 42
-0.038889
  0
VERTEX
  8
0
 10
2179.745993
 20
1268.258342
 42
-0.034573
  0
VERTEX
  8
0
 10
2192.356237
 20
1257.207425
 42
-0.037240
  0
VERTEX
  8
0
 10
2203.623454
 20
1244.036085
 42
-0.037652
  0
VERTEX
  8
0
 10
2212.766312
 20
1229.385548
 42
-0.037476
  0
VERTEX
  8
0
 10
2219.644373
 20
1213.462134
 42
-0.036158
  0
VERTEX
  8
0
 10
2224.166437
 20
1196.500000
 42
-0.047069
  0
VERTEX
  8
0
 10
2225.611515
 20
1181.202252
 42
-0.000021
  0
VERTEX
  8
0
 10
2225.648599
 20
668.560659
 42
-0.000020
  0
VERTEX
  8
0
 10
2225.643225
 20
155.569625
 42
-0.049449
  0
VERTEX
  8
0
 10
2224.198027
 20
141.000000
 42
-0.053642
  0
VERTEX
  8
0
 10
2216.320957
 20
115.967939
 42
-0.056448
  0
VERTEX
  8
0
 10
2203.395813
 20
93.644317
 42
-0.056286
  0
VERTEX
  8
0
 10
2185.767335
 20
74.723638
 42
-0.052790
  0
VERTEX
  8
0
 10
2164.000000
 20
59.742084
 42
-0.029801
  0
VERTEX
  8
0
 10
2157.396209
 20
56.651394
 42
-0.014900
  0
VERTEX
  8
0
 10
2148.724144
 20
53.502003
 42
-0.014688
  0
VERTEX
  8
0
 10
2139.474208
 20
50.749932
 42
-0.020139
  0
VERTEX
  8
0
 10
2131.000000
 20
48.859062
 42
-0.044446
  0
VERTEX
  8
0
 10
2121.742054
 20
48.019589
 42
-0.000059
  0
VERTEX
  8
0
 10
1940.691502
 20
47.752232
 42
-0.000296
  0
VERTEX
  8
0
 10
1673.132193
 20
47.547148
 42
-0.000043
  0
VERTEX
  8
0
 10
1131.000000
 20
47.500000
 42
-0.000029
  0
VERTEX
  8
0
 10
499.626418
 20
47.536955
 42
-0.000423
  0
VERTEX
  8
0
 10
275.740174
 20
47.752597
 42
-0.000206
  0
VERTEX
  8
0
 10
141.819887
 20
48.050101
 42
-0.051871
  0
VERTEX
  8
0
 10
130.000000
 20
49.311100
 42
-0.031218
  0
VERTEX
  8
0
 10
112.674506
 20
54.149863
 42
-0.038243
  0
VERTEX
  8
0
 10
97.269987
 20
60.867300
 42
-0.039242
  0
VERTEX
  8
0
 10
83.395638
 20
69.684187
 42
-0.036057
  0
VERTEX
  8
0
 10
70.643763
 20
80.792575
 42
-0.037034
  0
VERTEX
  8
0
 10
59.468563
 20
93.845439
 42
-0.038728
  0
VERTEX
  8
0
 10
50.525614
 20
108.217955
 42
-0.037613
  0
VERTEX
  8
0
 10
43.699493
 20
124.185163
 42
-0.031313
  0
VERTEX
  8
0
 10
38.841943
 20
142.000000
 42
-0.050135
  0
VERTEX
  8
0
 10
38.030446
 20
149.819600
 42
-0.000169
  0
VERTEX
  8
0
 10
37.753763
 20
245.792561
 42
-0.000550
  0
VERTEX
  8
0
 10
37.548246
 20
388.169588
 42
-0.000086
  0
VERTEX
  8
0
 10
37.500000
 20
669.500000
 42
-0.000057
  0
VERTEX
  8
0
 10
37.537787
 20
998.955867
 42
-0.000795
  0
VERTEX
  8
0
 10
37.754464
 20
1118.008575
 42
-0.000618
  0
VERTEX
  8
0
 10
38.079300
 20
1187.929356
 42
-0.057559
  0
VERTEX
  8
0
 10
39.302519
 20
1198.000000
 42
-0.024661
  0
VERTEX
  8
0
 10
44.658140
 20
1216.268285
 42
-0.038109
  0
VERTEX
  8
0
 10
51.222178
 20
1231.343310
 42
-0.040522
  0
VERTEX
  8
0
 10
59.657628
 20
1244.566326
 42
-0.033322
  0
VERTEX
  8
0
 10
70.643763
 20
1257.207425
 42
-0.044508
  0
VERTEX
  8
0
 10
85.763345
 20
1269.936052
 42
-0.043483
  0
VERTEX
  8
0
 10
103.011081
 20
1279.900559
 42
-0.043285
  0
VERTEX
  8
0
 10
121.800944
 20
1286.769097
 42
-0.043235
  0
VERTEX
  8
0
 10
141.500000
 20
1290.303350
 42
-0.022717
  0
VERTEX
  8
0
 10
144.788013
 20
1290.453652
 42
-0.000001
  0
VERTEX
  8
0
 10
435.284375
 20
1290.526575
 42
-0.000057
  0
VERTEX
  8
0
 10
755.919139
 20
1290.569333
 42
-0.000035
  0
VERTEX
  8
0
 10
1136.000000
 20
1290.550094
 42
-0.000032
  0
VERTEX
  8
0
 10
1748.963292
 20
1290.437753
 42
-0.000396
  0
VERTEX
  8
0
 10
1981.235950
 20
1290.196458
 42
-0.000147
  0
VERTEX
  8
0
 10
2123.709921
 20
1289.893617
 42
-0.055629
  0
SEQEND
  0
ENDSEC
  0
EOF
