<?xml version="1.0" encoding="utf-8"?>
<!-- Generator: Adobe Illustrator 19.0.0, SVG Export Plug-In . SVG Version: 6.00 Build 0)  -->
<svg version="1.1" id="Layer_1" xmlns="http://www.w3.org/2000/svg" xmlns:xlink="http://www.w3.org/1999/xlink" x="0px" y="0px"
	 viewBox="0 0 543 321" style="enable-background:new 0 0 543 321;" xml:space="preserve">
<style type="text/css">
	.st0{fill:none;stroke:#FF0000;stroke-width:0.709;stroke-linecap:round;stroke-linejoin:round;stroke-miterlimit:10;}
</style>
<path class="st0" d="M8.6,282.4l0.2,3.7l0.8,3.5l1.1,3.4l1.6,3.3l2,3l2.4,2.7l2.7,2.4l3,2l3.3,1.6l3.4,1.1l3.5,0.7l3.6,0.3
	 M36.2,310h470.6 M506.8,310l3.6-0.3l3.6-0.7l3.4-1.1l3.2-1.6l3-2l2.7-2.4l2.4-2.7l2-3l1.6-3.3l1.2-3.4l0.7-3.5l0.2-3.7
	 M534.4,282.4V38.7 M534.4,38.7l-0.2-3.6l-0.7-3.6l-1.2-3.4l-1.6-3.3l-2-3l-2.4-2.7l-2.7-2.4l-3-2l-3.2-1.6L514,12l-3.6-0.7
	l-3.6-0.3 M506.8,11H36.2 M36.2,11l-3.6,0.3L29.1,12l-3.4,1.1l-3.3,1.6l-3,2l-2.7,2.4l-2.4,2.7l-2,3l-1.6,3.3l-1.1,3.4l-0.8,3.6
	l-0.2,3.6 M8.6,38.7v243.7"/>
</svg>
