  0
SECTION
  2
HEADER
  9
$ACADVER
  1
AC1006
  9
$EXTMIN
 10
0.000000
 20
0.000000
 30
0.000000
  9
$EXTMAX
 10
2263.000000
 20
1338.000000
 30
0.000000
  0
ENDSEC
  0
SECTION
  2
ENTITIES
  0
POLYLINE
  8
0
 66
1
 70
1
  0
VERTEX
  8
0
 10
1073.195690
 20
888.262459
 42
0.012359
  0
VERTEX
  8
0
 10
1070.512260
 20
880.387193
 42
0.012943
  0
VERTEX
  8
0
 10
1068.265485
 20
872.508637
 42
0.013014
  0
VERTEX
  8
0
 10
1066.440251
 20
864.566337
 42
0.012820
  0
VERTEX
  8
0
 10
1065.020511
 20
856.500000
 42
-0.002096
  0
VERTEX
  8
0
 10
1064.535026
 20
853.347027
 42
-0.002808
  0
VERTEX
  8
0
 10
1064.066754
 20
850.492298
 42
-0.001948
  0
VERTEX
  8
0
 10
1063.651434
 20
848.102895
 42
-0.029329
  0
VERTEX
  8
0
 10
1063.455279
 20
847.282290
 42
-0.451446
  0
VERTEX
  8
0
 10
1062.896629
 20
847.026480
 42
-0.016535
  0
VERTEX
  8
0
 10
1060.538447
 20
848.170757
 42
-0.018553
  0
VERTEX
  8
0
 10
1057.377985
 20
849.988447
 42
-0.007970
  0
VERTEX
  8
0
 10
1053.293776
 20
852.635066
 42
0.025854
  0
VERTEX
  8
0
 10
1038.169832
 20
861.684762
 42
0.023298
  0
VERTEX
  8
0
 10
1021.666523
 20
869.473057
 42
0.023281
  0
VERTEX
  8
0
 10
1004.497032
 20
875.697533
 42
0.025712
  0
VERTEX
  8
0
 10
987.378566
 20
880.065478
 42
0.028526
  0
VERTEX
  8
0
 10
975.307120
 20
881.783620
 42
0.012380
  0
VERTEX
  8
0
 10
959.115584
 20
882.749579
 42
0.012416
  0
VERTEX
  8
0
 10
942.795118
 20
882.912768
 42
0.026647
  0
VERTEX
  8
0
 10
930.241229
 20
882.056344
 42
0.031362
  0
VERTEX
  8
0
 10
904.892863
 20
877.336275
 42
0.027564
  0
VERTEX
  8
0
 10
879.188944
 20
869.331083
 42
0.027963
  0
VERTEX
  8
0
 10
854.949285
 20
858.710846
 42
0.035529
  0
VERTEX
  8
0
 10
834.000000
 20
846.156573
 42
0.003212
  0
VERTEX
  8
0
 10
825.599001
 20
840.192754
 42
0.457102
  0
VERTEX
  8
0
 10
825.502432
 20
839.117217
 42
0.202414
  0
VERTEX
  8
0
 10
826.938220
 20
838.504375
 42
0.001239
  0
VERTEX
  8
0
 10
841.410720
 20
838.482502
 42
-0.003465
  0
VERTEX
  8
0
 10
851.962988
 20
838.419573
 42
-0.019451
  0
VERTEX
  8
0
 10
857.598779
 20
838.127425
 42
-0.033407
  0
VERTEX
  8
0
 10
861.716053
 20
837.473634
 42
-0.027375
  0
VERTEX
  8
0
 10
866.000000
 20
836.246390
 42
-0.042989
  0
VERTEX
  8
0
 10
873.728397
 20
832.798202
 42
-0.038263
  0
VERTEX
  8
0
 10
881.079088
 20
827.960395
 42
-0.037823
  0
VERTEX
  8
0
 10
887.689889
 20
821.994368
 42
-0.039613
  0
VERTEX
  8
0
 10
893.215526
 20
815.186744
 42
-0.039904
  0
VERTEX
  8
0
 10
898.106539
 20
806.701036
 42
-0.026594
  0
VERTEX
  8
0
 10
902.374420
 20
796.316227
 42
-0.025983
  0
VERTEX
  8
0
 10
905.635104
 20
785.178411
 42
-0.031005
  0
VERTEX
  8
0
 10
907.495011
 20
774.398636
 42
0.000000
  0
VERTEX
  8
0
 10
908.161872
 20
768.297272
 42
0.000000
  0
VERTEX
  8
0
 10
919.330936
 20
767.679490
 42
-0.025515
  0
VERTEX
  8
0
 10
931.918420
 20
766.336704
 42
-0.049243
  0
VERTEX
  8
0
 10
941.712471
 20
763.776328
 42
-0.058686
  0
VERTEX
  8
0
 10
949.625644
 20
759.743325
 42
-0.057612
  0
VERTEX
  8
0
 10
956.439939
 20
753.960756
 42
-0.053289
  0
VERTEX
  8
0
 10
962.158317
 20
746.368634
 42
-0.052829
  0
VERTEX
  8
0
 10
966.162528
 20
737.717863
 42
-0.048466
  0
VERTEX
  8
0
 10
968.506129
 20
727.757607
 42
-0.033971
  0
VERTEX
  8
0
 10
969.270421
 20
716.250000
 42
0.000000
  0
VERTEX
  8
0
 10
969.254046
 20
706.000000
 42
0.000000
  0
VERTEX
  8
0
 10
974.877023
 20
705.965112
 42
-0.029077
  0
VERTEX
  8
0
 10
981.919964
 20
705.511324
 42
-0.021967
  0
VERTEX
  8
0
 10
989.565620
 20
704.227158
 42
-0.022373
  0
VERTEX
  8
0
 10
996.794093
 20
702.342331
 42
-0.039435
  0
VERTEX
  8
0
 10
1002.524222
 20
700.062690
 42
-0.090309
  0
VERTEX
  8
0
 10
1013.387697
 20
692.014861
 42
-0.086504
  0
VERTEX
  8
0
 10
1020.912448
 20
680.541971
 42
-0.080251
  0
VERTEX
  8
0
 10
1024.483611
 20
666.424085
 42
-0.064103
  0
VERTEX
  8
0
 10
1023.848255
 20
650.719140
 42
0.003716
  0
VERTEX
  8
0
 10
1023.269857
 20
647.158434
 42
0.005890
  0
VERTEX
  8
0
 10
1022.833070
 20
644.099245
 42
0.001803
  0
VERTEX
  8
0
 10
1022.496968
 20
641.455078
 42
0.209333
  0
VERTEX
  8
0
 10
1022.594127
 20
641.129352
 42
0.287528
  0
VERTEX
  8
0
 10
1023.327645
 20
640.895794
 42
0.000601
  0
VERTEX
  8
0
 10
1035.379829
 20
644.010408
 42
0.004311
  0
VERTEX
  8
0
 10
1047.158173
 20
647.178017
 42
0.006245
  0
VERTEX
  8
0
 10
1057.500000
 20
650.194781
 42
0.017650
  0
VERTEX
  8
0
 10
1076.226179
 20
656.642763
 42
0.012894
  0
VERTEX
  8
0
 10
1096.551876
 20
665.061901
 42
0.013079
  0
VERTEX
  8
0
 10
1115.560120
 20
674.118626
 42
0.025854
  0
VERTEX
  8
0
 10
1130.040420
 20
682.457527
 42
-0.003730
  0
VERTEX
  8
0
 10
1132.776049
 20
684.198391
 42
-0.005674
  0
VERTEX
  8
0
 10
1135.180397
 20
685.665649
 42
-0.002318
  0
VERTEX
  8
0
 10
1137.252861
 20
686.885345
 42
-0.132595
  0
VERTEX
  8
0
 10
1137.677611
 20
687.000000
 42
-0.128960
  0
VERTEX
  8
0
 10
1138.122336
 20
686.883357
 42
-0.000902
  0
VERTEX
  8
0
 10
1141.551726
 20
684.943377
 42
-0.003406
  0
VERTEX
  8
0
 10
1145.469371
 20
682.682421
 42
-0.002164
  0
VERTEX
  8
0
 10
1150.002126
 20
679.998729
 42
0.020582
  0
VERTEX
  8
0
 10
1169.608956
 20
669.345048
 42
0.019359
  0
VERTEX
  8
0
 10
1190.424655
 20
660.102556
 42
0.017703
  0
VERTEX
  8
0
 10
1213.597361
 20
651.807558
 42
0.012227
  0
VERTEX
  8
0
 10
1240.345968
 20
644.002859
 42
0.005106
  0
VERTEX
  8
0
 10
1244.926341
 20
642.837033
 42
0.008107
  0
VERTEX
  8
0
 10
1248.872826
 20
641.942871
 42
0.003000
  0
VERTEX
  8
0
 10
1252.248926
 20
641.256400
 42
0.250022
  0
VERTEX
  8
0
 10
1252.738806
 20
641.405472
 42
0.212876
  0
VERTEX
  8
0
 10
1252.909532
 20
641.851045
 42
0.010419
  0
VERTEX
  8
0
 10
1252.789324
 20
643.463316
 42
0.015382
  0
VERTEX
  8
0
 10
1252.541080
 20
645.422773
 42
0.010353
  0
VERTEX
  8
0
 10
1252.142838
 20
647.642953
 42
-0.057673
  0
VERTEX
  8
0
 10
1250.983207
 20
661.586693
 42
-0.059506
  0
VERTEX
  8
0
 10
1253.067460
 20
675.273948
 42
-0.064451
  0
VERTEX
  8
0
 10
1258.024244
 20
687.040093
 42
-0.098497
  0
VERTEX
  8
0
 10
1265.334995
 20
695.311979
 42
-0.054365
  0
VERTEX
  8
0
 10
1272.454577
 20
699.599196
 42
-0.035256
  0
VERTEX
  8
0
 10
1281.448070
 20
703.014276
 42
-0.034105
  0
VERTEX
  8
0
 10
1291.253416
 20
705.250661
 42
-0.039017
  0
VERTEX
  8
0
 10
1300.837968
 20
706.000392
 42
0.000000
  0
VERTEX
  8
0
 10
1306.500000
 20
706.000785
 42
0.000000
  0
VERTEX
  8
0
 10
1306.532622
 20
717.250392
 42
-0.079464
  0
VERTEX
  8
0
 10
1310.077395
 20
739.009057
 42
-0.123806
  0
VERTEX
  8
0
 10
1320.219389
 20
754.956389
 42
-0.119009
  0
VERTEX
  8
0
 10
1337.039588
 20
764.611276
 42
-0.070013
  0
VERTEX
  8
0
 10
1360.106401
 20
767.965112
 42
0.000000
  0
VERTEX
  8
0
 10
1367.712801
 20
768.000000
 42
0.000000
  0
VERTEX
  8
0
 10
1368.344015
 20
774.791609
 42
-0.025153
  0
VERTEX
  8
0
 10
1369.500097
 20
782.822709
 42
-0.022590
  0
VERTEX
  8
0
 10
1371.486511
 20
790.995300
 42
-0.022157
  0
VERTEX
  8
0
 10
1374.249802
 20
799.118004
 42
-0.021874
  0
VERTEX
  8
0
 10
1377.731548
 20
807.000000
 42
-0.035079
  0
VERTEX
  8
0
 10
1382.762666
 20
815.590117
 42
-0.041844
  0
VERTEX
  8
0
 10
1388.689044
 20
822.865055
 42
-0.043782
  0
VERTEX
  8
0
 10
1395.486366
 20
828.779435
 42
-0.045820
  0
VERTEX
  8
0
 10
1403.111156
 20
833.318570
 42
-0.030178
  0
VERTEX
  8
0
 10
1410.711493
 20
836.398848
 42
-0.042126
  0
VERTEX
  8
0
 10
1417.831502
 20
838.145094
 42
-0.034801
  0
VERTEX
  8
0
 10
1426.105558
 20
838.864563
 42
-0.013645
  0
VERTEX
  8
0
 10
1437.566171
 20
838.748515
 42
0.005021
  0
VERTEX
  8
0
 10
1443.063599
 20
838.597995
 42
0.008835
  0
VERTEX
  8
0
 10
1447.608785
 20
838.599531
 42
0.003758
  0
VERTEX
  8
0
 10
1451.336958
 20
838.694705
 42
0.576330
  0
VERTEX
  8
0
 10
1451.500332
 20
838.999463
 42
0.113382
  0
VERTEX
  8
0
 10
1448.920920
 20
841.610146
 42
0.004121
  0
VERTEX
  8
0
 10
1436.985422
 20
849.049659
 42
0.008388
  0
VERTEX
  8
0
 10
1424.759633
 20
856.251869
 42
0.017714
  0
VERTEX
  8
0
 10
1415.000000
 20
861.334913
 42
0.023713
  0
VERTEX
  8
0
 10
1391.719865
 20
871.104294
 42
0.029672
  0
VERTEX
  8
0
 10
1369.280042
 20
877.814832
 42
0.030442
  0
VERTEX
  8
0
 10
1346.696030
 20
881.700574
 42
0.027388
  0
VERTEX
  8
0
 10
1322.990991
 20
883.000000
 42
0.034008
  0
VERTEX
  8
0
 10
1295.916717
 20
881.156368
 42
0.039379
  0
VERTEX
  8
0
 10
1270.673988
 20
875.651982
 42
0.039126
  0
VERTEX
  8
0
 10
1246.470634
 20
866.219065
 42
0.032828
  0
VERTEX
  8
0
 10
1222.500000
 20
852.638170
 42
0.000000
  0
VERTEX
  8
0
 10
1212.500000
 20
846.070711
 42
0.000000
  0
VERTEX
  8
0
 10
1210.849740
 20
855.785356
 42
0.015645
  0
VERTEX
  8
0
 10
1208.369481
 20
868.048938
 42
0.013400
  0
VERTEX
  8
0
 10
1205.012313
 20
880.789788
 42
0.010289
  0
VERTEX
  8
0
 10
1201.488048
 20
891.983551
 42
0.098694
  0
VERTEX
  8
0
 10
1199.006066
 20
896.294941
 42
0.454861
  0
VERTEX
  8
0
 10
1198.458228
 20
896.293803
 42
0.000871
  0
VERTEX
  8
0
 10
1191.945061
 20
888.765042
 42
0.004621
  0
VERTEX
  8
0
 10
1184.571812
 20
880.050418
 42
0.002751
  0
VERTEX
  8
0
 10
1175.945893
 20
869.544941
 42
0.000000
  0
VERTEX
  8
0
 10
1153.581667
 20
842.000000
 42
0.000000
  0
VERTEX
  8
0
 10
1137.856630
 20
842.000000
 42
0.000000
  0
VERTEX
  8
0
 10
1122.131592
 20
842.000000
 42
0.000000
  0
VERTEX
  8
0
 10
1099.960545
 20
869.250000
 42
0.000969
  0
VERTEX
  8
0
 10
1091.411364
 20
879.716153
 42
0.001572
  0
VERTEX
  8
0
 10
1084.101869
 20
888.572410
 42
0.000200
  0
VERTEX
  8
0
 10
1077.567631
 20
896.432433
 42
0.128078
  0
VERTEX
  8
0
 10
1077.107372
 20
896.762459
 42
0.388840
  0
VERTEX
  8
0
 10
1076.742138
 20
896.618949
 42
0.005851
  0
VERTEX
  8
0
 10
1075.676939
 20
894.373848
 42
0.012208
  0
VERTEX
  8
0
 10
1074.483055
 20
891.603403
 42
0.007339
  0
SEQEND
  0
POLYLINE
  8
0
 66
1
 70
1
  0
VERTEX
  8
0
 10
1098.613160
 20
853.000000
 42
0.000000
  0
VERTEX
  8
0
 10
1116.445331
 20
831.000000
 42
0.000000
  0
VERTEX
  8
0
 10
1137.972665
 20
831.054475
 42
0.000000
  0
VERTEX
  8
0
 10
1159.500000
 20
831.108949
 42
0.000000
  0
VERTEX
  8
0
 10
1176.871122
 20
852.633352
 42
-0.003952
  0
VERTEX
  8
0
 10
1183.723891
 20
860.988576
 42
-0.007128
  0
VERTEX
  8
0
 10
1189.489813
 20
867.709287
 42
-0.002131
  0
VERTEX
  8
0
 10
1194.443786
 20
873.271774
 42
-0.429982
  0
VERTEX
  8
0
 10
1195.110379
 20
873.289621
 42
-0.142767
  0
VERTEX
  8
0
 10
1196.113380
 20
871.461386
 42
-0.003941
  0
VERTEX
  8
0
 10
1198.023228
 20
862.513355
 42
-0.008956
  0
VERTEX
  8
0
 10
1199.748980
 20
853.265495
 42
-0.014603
  0
VERTEX
  8
0
 10
1200.841914
 20
845.359660
 42
0.000000
  0
VERTEX
  8
0
 10
1201.695422
 20
837.500000
 42
0.000000
  0
VERTEX
  8
0
 10
1190.906103
 20
827.211469
 42
0.018398
  0
VERTEX
  8
0
 10
1178.269479
 20
814.240984
 42
0.014079
  0
VERTEX
  8
0
 10
1165.399404
 20
799.189010
 42
0.013789
  0
VERTEX
  8
0
 10
1153.074448
 20
783.032835
 42
0.015203
  0
VERTEX
  8
0
 10
1142.070783
 20
766.729504
 42
0.000000
  0
VERTEX
  8
0
 10
1137.885861
 20
760.103149
 42
0.000000
  0
VERTEX
  8
0
 10
1128.033485
 20
774.801574
 42
0.010153
  0
VERTEX
  8
0
 10
1118.103300
 20
788.984733
 42
0.013562
  0
VERTEX
  8
0
 10
1108.489646
 20
801.416734
 42
0.013931
  0
VERTEX
  8
0
 10
1098.432666
 20
813.041140
 42
0.011759
  0
VERTEX
  8
0
 10
1087.172371
 20
824.779661
 42
0.000000
  0
VERTEX
  8
0
 10
1073.820101
 20
838.059323
 42
0.000000
  0
VERTEX
  8
0
 10
1074.940136
 20
846.779661
 42
-0.012517
  0
VERTEX
  8
0
 10
1076.035692
 20
853.894908
 42
-0.004655
  0
VERTEX
  8
0
 10
1077.918789
 20
863.840921
 42
-0.000655
  0
VERTEX
  8
0
 10
1080.075867
 20
874.607217
 42
-0.357046
  0
VERTEX
  8
0
 10
1080.555792
 20
875.000000
 42
-0.224490
  0
VERTEX
  8
0
 10
1080.705930
 20
874.929014
 42
-0.000048
  0
VERTEX
  8
0
 10
1085.953037
 20
868.537500
 42
-0.000958
  0
VERTEX
  8
0
 10
1091.759538
 20
861.435509
 42
-0.000579
  0
SEQEND
  0
POLYLINE
  8
0
 66
1
 70
1
  0
VERTEX
  8
0
 10
967.144045
 20
871.950865
 42
-0.031440
  0
VERTEX
  8
0
 10
990.545526
 20
868.082521
 42
-0.035694
  0
VERTEX
  8
0
 10
1012.275839
 20
861.407232
 42
-0.034958
  0
VERTEX
  8
0
 10
1033.214078
 20
851.568278
 42
-0.028034
  0
VERTEX
  8
0
 10
1054.250000
 20
838.226269
 42
0.000000
  0
VERTEX
  8
0
 10
1062.000000
 20
832.678527
 42
0.000000
  0
VERTEX
  8
0
 10
1062.000836
 20
827.089263
 42
0.023603
  0
VERTEX
  8
0
 10
1062.609421
 20
814.245205
 42
0.016242
  0
VERTEX
  8
0
 10
1064.456018
 20
799.786302
 42
0.016245
  0
VERTEX
  8
0
 10
1067.236374
 20
785.483225
 42
0.023676
  0
VERTEX
  8
0
 10
1070.684084
 20
773.113578
 42
0.039462
  0
VERTEX
  8
0
 10
1079.290473
 20
752.646322
 42
0.034429
  0
VERTEX
  8
0
 10
1091.354493
 20
732.780991
 42
0.033897
  0
VERTEX
  8
0
 10
1106.251894
 20
714.447448
 42
0.035233
  0
VERTEX
  8
0
 10
1123.310927
 20
698.547995
 42
0.000000
  0
VERTEX
  8
0
 10
1128.121855
 20
694.659225
 42
0.000000
  0
VERTEX
  8
0
 10
1122.810927
 20
691.327492
 42
-0.027745
  0
VERTEX
  8
0
 10
1105.348627
 20
681.678635
 42
-0.014452
  0
VERTEX
  8
0
 10
1082.629975
 20
671.521525
 42
-0.014424
  0
VERTEX
  8
0
 10
1059.035909
 20
662.568428
 42
-0.024395
  0
VERTEX
  8
0
 10
1038.750000
 20
656.624007
 42
0.000000
  0
VERTEX
  8
0
 10
1036.000000
 20
655.961896
 42
0.000000
  0
VERTEX
  8
0
 10
1036.000000
 20
662.320985
 42
0.023323
  0
VERTEX
  8
0
 10
1035.860603
 20
665.307746
 42
0.011522
  0
VERTEX
  8
0
 10
1035.419713
 20
669.080992
 42
0.011408
  0
VERTEX
  8
0
 10
1034.781364
 20
672.982549
 42
0.016351
  0
VERTEX
  8
0
 10
1034.024555
 20
676.403989
 42
0.066711
  0
VERTEX
  8
0
 10
1028.128208
 20
691.012991
 42
0.081093
  0
VERTEX
  8
0
 10
1018.873456
 20
702.488650
 42
0.078771
  0
VERTEX
  8
0
 10
1006.212608
 20
710.658869
 42
0.058794
  0
VERTEX
  8
0
 10
990.305900
 20
715.551576
 42
0.000000
  0
VERTEX
  8
0
 10
981.254934
 20
717.207472
 42
0.000000
  0
VERTEX
  8
0
 10
980.581815
 20
723.853736
 42
0.033223
  0
VERTEX
  8
0
 10
978.644044
 20
735.324187
 42
0.043867
  0
VERTEX
  8
0
 10
975.296226
 20
745.377528
 42
0.046473
  0
VERTEX
  8
0
 10
970.439335
 20
754.225661
 42
0.045455
  0
VERTEX
  8
0
 10
964.000000
 20
762.095839
 42
0.047102
  0
VERTEX
  8
0
 10
956.164869
 20
768.696312
 42
0.049610
  0
VERTEX
  8
0
 10
947.362585
 20
773.583077
 42
0.046673
  0
VERTEX
  8
0
 10
937.295942
 20
776.856457
 42
0.034208
  0
VERTEX
  8
0
 10
925.681133
 20
778.644179
 42
0.000000
  0
VERTEX
  8
0
 10
918.342606
 20
779.264511
 42
0.000000
  0
VERTEX
  8
0
 10
916.159992
 20
788.882256
 42
0.031858
  0
VERTEX
  8
0
 10
912.390689
 20
801.660158
 42
0.035210
  0
VERTEX
  8
0
 10
907.126313
 20
813.418975
 42
0.036743
  0
VERTEX
  8
0
 10
900.511299
 20
823.858849
 42
0.042277
  0
VERTEX
  8
0
 10
892.712105
 20
832.702265
 42
0.022887
  0
VERTEX
  8
0
 10
887.075361
 20
837.624083
 42
0.033225
  0
VERTEX
  8
0
 10
881.647007
 20
841.382618
 42
0.033083
  0
VERTEX
  8
0
 10
875.750731
 20
844.400260
 42
0.022425
  0
VERTEX
  8
0
 10
868.691973
 20
847.073717
 42
0.000000
  0
VERTEX
  8
0
 10
860.852216
 20
849.647434
 42
0.000000
  0
VERTEX
  8
0
 10
870.176108
 20
853.933329
 42
-0.030438
  0
VERTEX
  8
0
 10
894.333415
 20
863.303266
 42
-0.031369
  0
VERTEX
  8
0
 10
919.209461
 20
869.560710
 42
-0.032437
  0
VERTEX
  8
0
 10
943.810619
 20
872.498728
 42
-0.038763
  0
SEQEND
  0
POLYLINE
  8
0
 66
1
 70
1
  0
VERTEX
  8
0
 10
1339.144045
 20
871.974140
 42
-0.013054
  0
VERTEX
  8
0
 10
1349.339558
 20
870.694639
 42
-0.011668
  0
VERTEX
  8
0
 10
1359.845642
 20
868.844832
 42
-0.011810
  0
VERTEX
  8
0
 10
1370.103038
 20
866.537766
 42
-0.014527
  0
VERTEX
  8
0
 10
1379.548102
 20
863.883996
 42
-0.014741
  0
VERTEX
  8
0
 10
1388.448184
 20
860.811217
 42
-0.006467
  0
VERTEX
  8
0
 10
1400.055589
 20
856.244192
 42
-0.002000
  0
VERTEX
  8
0
 10
1411.956057
 20
851.327560
 42
-0.156621
  0
VERTEX
  8
0
 10
1413.487113
 20
850.020852
 42
-0.408236
  0
VERTEX
  8
0
 10
1413.402319
 20
849.644488
 42
-0.034306
  0
VERTEX
  8
0
 10
1412.442421
 20
849.113294
 42
-0.030440
  0
VERTEX
  8
0
 10
1411.024538
 20
848.553550
 42
-0.017116
  0
VERTEX
  8
0
 10
1409.245373
 20
848.040201
 42
0.044016
  0
VERTEX
  8
0
 10
1402.718851
 20
845.770742
 42
0.025847
  0
VERTEX
  8
0
 10
1395.359614
 20
841.992539
 42
0.025617
  0
VERTEX
  8
0
 10
1388.290912
 20
837.389473
 42
0.037447
  0
VERTEX
  8
0
 10
1382.628075
 20
832.587773
 42
0.042312
  0
VERTEX
  8
0
 10
1375.092253
 20
823.786107
 42
0.034028
  0
VERTEX
  8
0
 10
1368.518490
 20
813.194443
 42
0.032890
  0
VERTEX
  8
0
 10
1363.227371
 20
801.399493
 42
0.032785
  0
VERTEX
  8
0
 10
1359.522071
 20
789.000000
 42
-0.001007
  0
VERTEX
  8
0
 10
1358.837980
 20
786.036288
 42
-0.001326
  0
VERTEX
  8
0
 10
1358.201389
 20
783.335938
 42
-0.000958
  0
VERTEX
  8
0
 10
1357.657415
 20
781.074778
 42
-0.012817
  0
VERTEX
  8
0
 10
1357.434791
 20
780.250000
 42
-0.197067
  0
VERTEX
  8
0
 10
1357.037828
 20
779.757518
 42
-0.050847
  0
VERTEX
  8
0
 10
1356.079417
 20
779.350471
 42
-0.042999
  0
VERTEX
  8
0
 10
1354.781532
 20
779.068302
 42
-0.029735
  0
VERTEX
  8
0
 10
1353.281385
 20
778.965112
 42
0.049778
  0
VERTEX
  8
0
 10
1341.644508
 20
777.695191
 42
0.045688
  0
VERTEX
  8
0
 10
1330.132749
 20
774.140693
 42
0.046570
  0
VERTEX
  8
0
 10
1319.682077
 20
768.648459
 42
0.057245
  0
VERTEX
  8
0
 10
1311.197462
 20
761.627121
 42
0.054343
  0
VERTEX
  8
0
 10
1304.717330
 20
753.217695
 42
0.041952
  0
VERTEX
  8
0
 10
1299.532427
 20
742.859778
 42
0.041858
  0
VERTEX
  8
0
 10
1296.137914
 20
731.751934
 42
0.053279
  0
VERTEX
  8
0
 10
1295.000000
 20
721.103431
 42
0.000000
  0
VERTEX
  8
0
 10
1295.000000
 20
717.122546
 42
0.000000
  0
VERTEX
  8
0
 10
1290.250000
 20
716.465840
 42
0.009981
  0
VERTEX
  8
0
 10
1288.004150
 20
716.109523
 42
0.004771
  0
VERTEX
  8
0
 10
1285.132812
 20
715.566687
 42
0.004728
  0
VERTEX
  8
0
 10
1282.143985
 20
714.942611
 42
0.006716
  0
VERTEX
  8
0
 10
1279.500000
 20
714.327077
 42
0.079309
  0
VERTEX
  8
0
 10
1263.270713
 20
707.456861
 42
0.088724
  0
VERTEX
  8
0
 10
1250.696557
 20
696.073838
 42
0.087969
  0
VERTEX
  8
0
 10
1242.772853
 20
680.950153
 42
0.076418
  0
VERTEX
  8
0
 10
1240.014781
 20
663.250000
 42
-0.007167
  0
VERTEX
  8
0
 10
1239.969263
 20
660.470138
 42
-0.011902
  0
VERTEX
  8
0
 10
1239.841557
 20
658.129688
 42
-0.005567
  0
VERTEX
  8
0
 10
1239.668618
 20
656.201426
 42
-0.385052
  0
VERTEX
  8
0
 10
1239.445840
 20
656.000000
 42
-0.071544
  0
VERTEX
  8
0
 10
1237.525686
 20
656.276163
 42
-0.001467
  0
VERTEX
  8
0
 10
1228.179090
 20
659.051276
 42
-0.003921
  0
VERTEX
  8
0
 10
1218.781918
 20
661.951958
 42
-0.006726
  0
VERTEX
  8
0
 10
1211.000000
 20
664.536787
 42
-0.012059
  0
VERTEX
  8
0
 10
1196.135352
 20
670.102398
 42
-0.011551
  0
VERTEX
  8
0
 10
1181.339171
 20
676.453884
 42
-0.011847
  0
VERTEX
  8
0
 10
1167.277245
 20
683.285991
 42
-0.014955
  0
VERTEX
  8
0
 10
1154.625967
 20
690.294159
 42
0.000000
  0
VERTEX
  8
0
 10
1147.751934
 20
694.375305
 42
0.000000
  0
VERTEX
  8
0
 10
1154.125967
 20
699.847660
 42
0.045973
  0
VERTEX
  8
0
 10
1178.510310
 20
725.020703
 42
0.053462
  0
VERTEX
  8
0
 10
1196.508471
 20
753.052117
 42
0.054545
  0
VERTEX
  8
0
 10
1207.890637
 20
783.758469
 42
0.051246
  0
VERTEX
  8
0
 10
1212.676230
 20
816.857151
 42
0.000000
  0
VERTEX
  8
0
 10
1213.309114
 20
832.214302
 42
0.000000
  0
VERTEX
  8
0
 10
1220.430325
 20
837.480686
 42
-0.042546
  0
VERTEX
  8
0
 10
1248.191868
 20
854.567518
 42
-0.046011
  0
VERTEX
  8
0
 10
1277.741693
 20
866.189912
 42
-0.047011
  0
VERTEX
  8
0
 10
1308.322002
 20
872.033754
 42
-0.048440
  0
SEQEND
  0
POLYLINE
  8
0
 66
1
 70
1
  0
VERTEX
  8
0
 10
1098.493384
 20
795.943200
 42
-0.011404
  0
VERTEX
  8
0
 10
1105.994635
 20
786.500636
 42
-0.009395
  0
VERTEX
  8
0
 10
1113.571500
 20
776.102804
 42
-0.008806
  0
VERTEX
  8
0
 10
1121.244844
 20
764.724525
 42
-0.007255
  0
VERTEX
  8
0
 10
1129.036617
 20
752.329698
 42
0.002051
  0
VERTEX
  8
0
 10
1134.769411
 20
742.995974
 42
0.036281
  0
VERTEX
  8
0
 10
1136.846122
 20
740.132270
 42
0.219824
  0
VERTEX
  8
0
 10
1138.127085
 20
739.532232
 42
0.262575
  0
VERTEX
  8
0
 10
1139.275882
 20
740.172185
 42
0.000827
  0
VERTEX
  8
0
 10
1140.193937
 20
741.678565
 42
0.000069
  0
VERTEX
  8
0
 10
1142.567887
 20
745.589587
 42
0.000092
  0
VERTEX
  8
0
 10
1145.398297
 20
750.255996
 42
0.000071
  0
VERTEX
  8
0
 10
1148.483104
 20
755.345558
 42
-0.014669
  0
VERTEX
  8
0
 10
1159.225962
 20
771.955941
 42
-0.013841
  0
VERTEX
  8
0
 10
1171.126477
 20
788.239870
 42
-0.014276
  0
VERTEX
  8
0
 10
1183.440333
 20
803.240793
 42
-0.019516
  0
VERTEX
  8
0
 10
1195.417323
 20
815.971112
 42
0.000000
  0
VERTEX
  8
0
 10
1202.000000
 20
822.442223
 42
0.000000
  0
VERTEX
  8
0
 10
1202.000000
 20
819.272328
 42
-0.030900
  0
VERTEX
  8
0
 10
1201.608270
 20
812.939776
 42
-0.007922
  0
VERTEX
  8
0
 10
1200.181907
 20
802.774437
 42
-0.008380
  0
VERTEX
  8
0
 10
1198.384871
 20
792.430337
 42
-0.021197
  0
VERTEX
  8
0
 10
1196.636056
 20
785.000000
 42
-0.024258
  0
VERTEX
  8
0
 10
1191.271267
 20
768.921533
 42
-0.030195
  0
VERTEX
  8
0
 10
1184.691436
 20
754.609450
 42
-0.029805
  0
VERTEX
  8
0
 10
1176.359125
 20
741.046090
 42
-0.022655
  0
VERTEX
  8
0
 10
1165.718355
 20
727.215524
 42
-0.021143
  0
VERTEX
  8
0
 10
1159.613653
 20
720.574745
 42
-0.010223
  0
VERTEX
  8
0
 10
1151.281423
 20
712.580339
 42
-0.007655
  0
VERTEX
  8
0
 10
1143.031904
 20
705.213199
 42
-0.070527
  0
VERTEX
  8
0
 10
1139.011794
 20
702.620372
 42
-0.175206
  0
VERTEX
  8
0
 10
1137.659128
 20
702.504959
 42
-0.067035
  0
VERTEX
  8
0
 10
1135.889840
 20
703.243934
 42
-0.034382
  0
VERTEX
  8
0
 10
1133.331572
 20
704.987574
 42
-0.007047
  0
VERTEX
  8
0
 10
1129.080737
 20
708.432659
 42
-0.048249
  0
VERTEX
  8
0
 10
1107.246727
 20
730.539044
 42
-0.050150
  0
VERTEX
  8
0
 10
1090.373067
 20
756.150405
 42
-0.051300
  0
VERTEX
  8
0
 10
1079.240281
 20
784.036607
 42
-0.055473
  0
VERTEX
  8
0
 10
1074.393447
 20
812.878371
 42
0.000000
  0
VERTEX
  8
0
 10
1073.857342
 20
822.500000
 42
0.000000
  0
VERTEX
  8
0
 10
1082.544701
 20
813.583800
 42
-0.005729
  0
VERTEX
  8
0
 10
1086.398737
 20
809.536489
 42
-0.003604
  0
VERTEX
  8
0
 10
1090.813163
 20
804.723941
 42
-0.003617
  0
VERTEX
  8
0
 10
1095.088229
 20
799.926035
 42
-0.006618
  0
SEQEND
  0
POLYLINE
  8
0
 66
1
 70
1
  0
VERTEX
  8
0
 10
1345.196048
 20
591.168645
 42
0.060562
  0
VERTEX
  8
0
 10
1339.615061
 20
588.371521
 42
0.066023
  0
VERTEX
  8
0
 10
1335.046452
 20
584.385272
 42
0.072755
  0
VERTEX
  8
0
 10
1332.031971
 20
579.746425
 42
0.108170
  0
VERTEX
  8
0
 10
1331.000000
 20
575.032119
 42
0.117384
  0
VERTEX
  8
0
 10
1331.257321
 20
573.951156
 42
0.194824
  0
VERTEX
  8
0
 10
1331.952651
 20
573.343060
 42
0.076393
  0
VERTEX
  8
0
 10
1333.413521
 20
573.075333
 42
0.008866
  0
VERTEX
  8
0
 10
1336.750000
 20
573.038520
 42
0.013280
  0
VERTEX
  8
0
 10
1340.218074
 20
573.153901
 42
0.083704
  0
VERTEX
  8
0
 10
1341.935809
 20
573.550365
 42
0.117362
  0
VERTEX
  8
0
 10
1343.156153
 20
574.435484
 42
0.037064
  0
VERTEX
  8
0
 10
1344.501952
 20
576.259960
 42
-0.061079
  0
VERTEX
  8
0
 10
1346.874556
 20
579.173317
 42
-0.097376
  0
VERTEX
  8
0
 10
1349.568186
 20
580.904404
 42
-0.078244
  0
VERTEX
  8
0
 10
1353.141303
 20
581.706754
 42
-0.028165
  0
VERTEX
  8
0
 10
1358.367151
 20
581.750662
 42
-0.011909
  0
VERTEX
  8
0
 10
1362.440177
 20
581.458003
 42
-0.063625
  0
VERTEX
  8
0
 10
1364.609353
 20
580.966951
 42
-0.088376
  0
VERTEX
  8
0
 10
1366.244899
 20
580.017431
 42
-0.034837
  0
VERTEX
  8
0
 10
1368.117151
 20
578.194915
 42
-0.067451
  0
VERTEX
  8
0
 10
1370.091396
 20
575.274919
 42
-0.094952
  0
VERTEX
  8
0
 10
1370.929199
 20
572.253326
 42
-0.107660
  0
VERTEX
  8
0
 10
1370.549162
 20
569.420420
 42
-0.109826
  0
VERTEX
  8
0
 10
1369.025436
 20
567.025436
 42
-0.067917
  0
VERTEX
  8
0
 10
1367.096073
 20
565.559416
 42
-0.066107
  0
VERTEX
  8
0
 10
1364.827053
 20
564.647540
 42
-0.032278
  0
VERTEX
  8
0
 10
1361.245962
 20
563.975257
 42
-0.004612
  0
VERTEX
  8
0
 10
1353.822234
 20
563.141715
 42
0.027288
  0
VERTEX
  8
0
 10
1346.303861
 20
561.950375
 42
0.057150
  0
VERTEX
  8
0
 10
1340.701941
 20
560.057266
 42
0.072295
  0
VERTEX
  8
0
 10
1336.554114
 20
557.313554
 42
0.078149
  0
VERTEX
  8
0
 10
1333.485866
 20
553.566094
 42
0.036552
  0
VERTEX
  8
0
 10
1332.120229
 20
550.788949
 42
0.056045
  0
VERTEX
  8
0
 10
1331.400681
 20
548.208841
 42
0.033992
  0
VERTEX
  8
0
 10
1331.079019
 20
544.723953
 42
0.006021
  0
VERTEX
  8
0
 10
1331.000000
 20
538.162142
 42
0.000000
  0
VERTEX
  8
0
 10
1331.000000
 20
527.000000
 42
0.000000
  0
VERTEX
  8
0
 10
1357.500000
 20
527.000000
 42
0.000000
  0
VERTEX
  8
0
 10
1384.000000
 20
527.000000
 42
0.000000
  0
VERTEX
  8
0
 10
1384.000000
 20
532.500000
 42
0.000000
  0
VERTEX
  8
0
 10
1384.000000
 20
538.000000
 42
0.000000
  0
VERTEX
  8
0
 10
1363.500000
 20
538.000000
 42
0.000000
  0
VERTEX
  8
0
 10
1343.000000
 20
538.000000
 42
0.000000
  0
VERTEX
  8
0
 10
1343.000000
 20
542.325686
 42
-0.086101
  0
VERTEX
  8
0
 10
1343.765871
 20
546.740221
 42
-0.169194
  0
VERTEX
  8
0
 10
1345.976355
 20
549.480614
 42
-0.095418
  0
VERTEX
  8
0
 10
1350.421392
 20
551.187072
 42
-0.017017
  0
VERTEX
  8
0
 10
1359.270834
 20
552.454569
 42
0.035550
  0
VERTEX
  8
0
 10
1370.718933
 20
554.529503
 42
0.106365
  0
VERTEX
  8
0
 10
1377.800380
 20
558.058335
 42
0.141216
  0
VERTEX
  8
0
 10
1381.661730
 20
563.513272
 42
0.084049
  0
VERTEX
  8
0
 10
1383.000000
 20
571.418273
 42
0.088834
  0
VERTEX
  8
0
 10
1381.421792
 20
580.231040
 42
0.126215
  0
VERTEX
  8
0
 10
1376.912097
 20
586.745534
 42
0.109784
  0
VERTEX
  8
0
 10
1369.278189
 20
590.871384
 42
0.056432
  0
VERTEX
  8
0
 10
1358.500000
 20
592.655639
 42
0.013267
  0
VERTEX
  8
0
 10
1354.329400
 20
592.758999
 42
0.027395
  0
VERTEX
  8
0
 10
1351.074206
 20
592.574780
 42
0.031795
  0
VERTEX
  8
0
 10
1348.187904
 20
592.064822
 42
0.026300
  0
SEQEND
  0
POLYLINE
  8
0
 66
1
 70
1
  0
VERTEX
  8
0
 10
1444.198715
 20
590.411734
 42
0.049100
  0
VERTEX
  8
0
 10
1439.766006
 20
587.630020
 42
0.045266
  0
VERTEX
  8
0
 10
1435.827264
 20
583.967927
 42
0.045969
  0
VERTEX
  8
0
 10
1432.669229
 20
579.721363
 42
0.054847
  0
VERTEX
  8
0
 10
1430.554276
 20
575.205272
 42
0.063790
  0
VERTEX
  8
0
 10
1429.291078
 20
569.005238
 42
0.019287
  0
VERTEX
  8
0
 10
1428.954113
 20
559.385059
 42
0.019371
  0
VERTEX
  8
0
 10
1429.361844
 20
549.750475
 42
0.061920
  0
VERTEX
  8
0
 10
1430.667197
 20
543.463322
 42
0.067604
  0
VERTEX
  8
0
 10
1433.130975
 20
538.532700
 42
0.049332
  0
VERTEX
  8
0
 10
1437.067158
 20
533.830805
 42
0.049085
  0
VERTEX
  8
0
 10
1441.875834
 20
529.964950
 42
0.064680
  0
VERTEX
  8
0
 10
1446.937400
 20
527.520792
 42
0.055783
  0
VERTEX
  8
0
 10
1452.579757
 20
526.322692
 42
0.037570
  0
VERTEX
  8
0
 10
1459.169739
 20
526.173210
 42
0.038034
  0
VERTEX
  8
0
 10
1465.544110
 20
526.996572
 42
0.068537
  0
VERTEX
  8
0
 10
1470.500000
 20
528.757179
 42
0.048190
  0
VERTEX
  8
0
 10
1474.393134
 20
531.277426
 42
0.034701
  0
VERTEX
  8
0
 10
1478.217431
 20
534.770710
 42
0.035074
  0
VERTEX
  8
0
 10
1481.461496
 20
538.692438
 42
0.055276
  0
VERTEX
  8
0
 10
1483.594045
 20
542.500000
 42
0.068185
  0
VERTEX
  8
0
 10
1484.992508
 20
547.674536
 42
0.019275
  0
VERTEX
  8
0
 10
1485.738362
 20
556.009258
 42
0.020126
  0
VERTEX
  8
0
 10
1485.828815
 20
564.657152
 42
0.043754
  0
VERTEX
  8
0
 10
1485.052850
 20
571.245421
 42
0.050594
  0
VERTEX
  8
0
 10
1483.192944
 20
577.136890
 42
0.060095
  0
VERTEX
  8
0
 10
1480.261179
 20
582.175894
 42
0.060185
  0
VERTEX
  8
0
 10
1476.219395
 20
586.367427
 42
0.050973
  0
VERTEX
  8
0
 10
1471.073361
 20
589.750000
 42
0.017300
  0
VERTEX
  8
0
 10
1467.366602
 20
591.517975
 42
0.045477
  0
VERTEX
  8
0
 10
1464.573303
 20
592.442271
 42
0.043024
  0
VERTEX
  8
0
 10
1461.571077
 20
592.873525
 42
0.014169
  0
VERTEX
  8
0
 10
1457.108972
 20
593.000000
 42
0.013915
  0
VERTEX
  8
0
 10
1452.903658
 20
592.882942
 42
0.035565
  0
VERTEX
  8
0
 10
1449.882030
 20
592.497863
 42
0.041154
  0
VERTEX
  8
0
 10
1447.211588
 20
591.729620
 42
0.024986
  0
SEQEND
  0
POLYLINE
  8
0
 66
1
 70
1
  0
VERTEX
  8
0
 10
1463.282119
 20
580.623161
 42
-0.085996
  0
VERTEX
  8
0
 10
1467.981389
 20
577.572016
 42
-0.087802
  0
VERTEX
  8
0
 10
1471.340220
 20
573.137173
 42
-0.074734
  0
VERTEX
  8
0
 10
1473.333603
 20
567.198762
 42
-0.043454
  0
VERTEX
  8
0
 10
1473.994423
 20
559.692820
 42
-0.027986
  0
VERTEX
  8
0
 10
1473.679397
 20
553.970626
 42
-0.044162
  0
VERTEX
  8
0
 10
1472.706948
 20
549.154153
 42
-0.051852
  0
VERTEX
  8
0
 10
1471.079078
 20
545.206281
 42
-0.069965
  0
VERTEX
  8
0
 10
1468.792178
 20
542.098638
 42
-0.120810
  0
VERTEX
  8
0
 10
1462.223885
 20
538.015096
 42
-0.122686
  0
VERTEX
  8
0
 10
1454.551078
 20
537.464629
 42
-0.123448
  0
VERTEX
  8
0
 10
1447.552423
 20
540.574811
 42
-0.123240
  0
VERTEX
  8
0
 10
1442.843645
 20
546.620561
 42
-0.034150
  0
VERTEX
  8
0
 10
1441.814183
 20
549.456630
 42
-0.041569
  0
VERTEX
  8
0
 10
1441.261785
 20
552.226679
 42
-0.028882
  0
VERTEX
  8
0
 10
1441.063783
 20
555.758935
 42
-0.007887
  0
VERTEX
  8
0
 10
1441.161674
 20
561.343889
 42
-0.007154
  0
VERTEX
  8
0
 10
1441.434851
 20
567.077494
 42
-0.034503
  0
VERTEX
  8
0
 10
1441.860746
 20
570.312593
 42
-0.056817
  0
VERTEX
  8
0
 10
1442.612757
 20
572.633152
 42
-0.048198
  0
VERTEX
  8
0
 10
1443.901069
 20
574.866528
 42
-0.071179
  0
VERTEX
  8
0
 10
1446.393652
 20
577.480343
 42
-0.044659
  0
VERTEX
  8
0
 10
1449.938230
 20
579.791295
 42
-0.044841
  0
VERTEX
  8
0
 10
1453.808687
 20
581.422576
 42
-0.075483
  0
VERTEX
  8
0
 10
1457.282119
 20
581.978038
 42
-0.038294
  0
VERTEX
  8
0
 10
1458.578037
 20
581.888925
 42
-0.019223
  0
VERTEX
  8
0
 10
1460.192243
 20
581.589102
 42
-0.018967
  0
VERTEX
  8
0
 10
1461.846766
 20
581.148933
 42
-0.026595
  0
SEQEND
  0
POLYLINE
  8
0
 66
1
 70
1
  0
VERTEX
  8
0
 10
777.000000
 20
559.500000
 42
0.000000
  0
VERTEX
  8
0
 10
777.000000
 20
527.000000
 42
0.000000
  0
VERTEX
  8
0
 10
801.500000
 20
527.000000
 42
0.000000
  0
VERTEX
  8
0
 10
826.000000
 20
527.000000
 42
0.000000
  0
VERTEX
  8
0
 10
826.000000
 20
533.000000
 42
0.000000
  0
VERTEX
  8
0
 10
826.000000
 20
539.000000
 42
0.000000
  0
VERTEX
  8
0
 10
807.456190
 20
539.000000
 42
0.000000
  0
VERTEX
  8
0
 10
788.912381
 20
539.000000
 42
0.000000
  0
VERTEX
  8
0
 10
789.206190
 20
546.250000
 42
0.000000
  0
VERTEX
  8
0
 10
789.500000
 20
553.500000
 42
0.000000
  0
VERTEX
  8
0
 10
807.250000
 20
553.773074
 42
0.000000
  0
VERTEX
  8
0
 10
825.000000
 20
554.046149
 42
0.000000
  0
VERTEX
  8
0
 10
825.000000
 20
559.523074
 42
0.000000
  0
VERTEX
  8
0
 10
825.000000
 20
565.000000
 42
0.000000
  0
VERTEX
  8
0
 10
807.000000
 20
565.000000
 42
0.000000
  0
VERTEX
  8
0
 10
789.000000
 20
565.000000
 42
0.000000
  0
VERTEX
  8
0
 10
789.000000
 20
572.500000
 42
0.000000
  0
VERTEX
  8
0
 10
789.000000
 20
580.000000
 42
0.000000
  0
VERTEX
  8
0
 10
807.500000
 20
580.000000
 42
0.000000
  0
VERTEX
  8
0
 10
826.000000
 20
580.000000
 42
0.000000
  0
VERTEX
  8
0
 10
826.000000
 20
586.000000
 42
0.000000
  0
VERTEX
  8
0
 10
826.000000
 20
592.000000
 42
0.000000
  0
VERTEX
  8
0
 10
801.500000
 20
592.000000
 42
0.000000
  0
VERTEX
  8
0
 10
777.000000
 20
592.000000
 42
0.000000
  0
SEQEND
  0
POLYLINE
  8
0
 66
1
 70
1
  0
VERTEX
  8
0
 10
894.000000
 20
559.500000
 42
0.000000
  0
VERTEX
  8
0
 10
894.000000
 20
527.000000
 42
0.000000
  0
VERTEX
  8
0
 10
899.500000
 20
527.000000
 42
0.000000
  0
VERTEX
  8
0
 10
905.000000
 20
527.000000
 42
0.000000
  0
VERTEX
  8
0
 10
905.023857
 20
538.250000
 42
-0.011290
  0
VERTEX
  8
0
 10
905.243230
 20
547.130081
 42
-0.038631
  0
VERTEX
  8
0
 10
905.959930
 20
552.856898
 42
-0.060571
  0
VERTEX
  8
0
 10
907.295300
 20
556.850128
 42
-0.085630
  0
VERTEX
  8
0
 10
909.452934
 20
559.907479
 42
-0.113754
  0
VERTEX
  8
0
 10
912.654674
 20
561.909744
 42
-0.077865
  0
VERTEX
  8
0
 10
916.891981
 20
562.667294
 42
-0.078869
  0
VERTEX
  8
0
 10
921.101611
 20
562.091587
 42
-0.123488
  0
VERTEX
  8
0
 10
924.222222
 20
560.224989
 42
-0.089671
  0
VERTEX
  8
0
 10
925.516213
 20
558.362260
 42
-0.070852
  0
VERTEX
  8
0
 10
926.211547
 20
556.004745
 42
-0.028280
  0
VERTEX
  8
0
 10
926.568153
 20
551.999410
 42
-0.002888
  0
VERTEX
  8
0
 10
926.820393
 20
542.474989
 42
0.000000
  0
VERTEX
  8
0
 10
927.140786
 20
527.000000
 42
0.000000
  0
VERTEX
  8
0
 10
933.189869
 20
527.000000
 42
0.000000
  0
VERTEX
  8
0
 10
939.238953
 20
527.000000
 42
0.000000
  0
VERTEX
  8
0
 10
938.837683
 20
542.767380
 42
0.003850
  0
VERTEX
  8
0
 10
938.529146
 20
552.073161
 42
0.024151
  0
VERTEX
  8
0
 10
938.105839
 20
556.809677
 42
0.044032
  0
VERTEX
  8
0
 10
937.340826
 20
560.145508
 42
0.036668
  0
VERTEX
  8
0
 10
935.968206
 20
563.515935
 42
0.051751
  0
VERTEX
  8
0
 10
933.117081
 20
568.028814
 42
0.092241
  0
VERTEX
  8
0
 10
929.825456
 20
570.915608
 42
0.088927
  0
VERTEX
  8
0
 10
925.628418
 20
572.488772
 42
0.045339
  0
VERTEX
  8
0
 10
920.002155
 20
573.000000
 42
0.014830
  0
VERTEX
  8
0
 10
916.162681
 20
572.886098
 42
0.052782
  0
VERTEX
  8
0
 10
913.738913
 20
572.483056
 42
0.062446
  0
VERTEX
  8
0
 10
911.669250
 20
571.620249
 42
0.026808
  0
VERTEX
  8
0
 10
909.150038
 20
569.993728
 42
0.000000
  0
VERTEX
  8
0
 10
905.000000
 20
566.987455
 42
0.000000
  0
VERTEX
  8
0
 10
905.000000
 20
579.493728
 42
0.000000
  0
VERTEX
  8
0
 10
905.000000
 20
592.000000
 42
0.000000
  0
VERTEX
  8
0
 10
899.500000
 20
592.000000
 42
0.000000
  0
VERTEX
  8
0
 10
894.000000
 20
592.000000
 42
0.000000
  0
SEQEND
  0
POLYLINE
  8
0
 66
1
 70
1
  0
VERTEX
  8
0
 10
1018.000000
 20
559.500000
 42
0.000000
  0
VERTEX
  8
0
 10
1018.000000
 20
527.000000
 42
0.000000
  0
VERTEX
  8
0
 10
1024.000000
 20
527.000000
 42
0.000000
  0
VERTEX
  8
0
 10
1030.000000
 20
527.000000
 42
0.000000
  0
VERTEX
  8
0
 10
1030.000000
 20
536.500000
 42
0.000000
  0
VERTEX
  8
0
 10
1030.000000
 20
546.000000
 42
0.000000
  0
VERTEX
  8
0
 10
1040.818499
 20
546.000000
 42
0.010364
  0
VERTEX
  8
0
 10
1045.611369
 20
546.099357
 42
0.012926
  0
VERTEX
  8
0
 10
1050.054107
 20
546.398829
 42
0.014143
  0
VERTEX
  8
0
 10
1053.856590
 20
546.862886
 42
0.034751
  0
VERTEX
  8
0
 10
1056.602754
 20
547.474671
 42
0.115681
  0
VERTEX
  8
0
 10
1064.786799
 20
552.149807
 42
0.109195
  0
VERTEX
  8
0
 10
1070.247675
 20
560.065220
 42
0.105539
  0
VERTEX
  8
0
 10
1071.976255
 20
569.779943
 42
0.101574
  0
VERTEX
  8
0
 10
1069.631966
 20
579.500000
 42
0.027060
  0
VERTEX
  8
0
 10
1067.572756
 20
583.330859
 42
0.062290
  0
VERTEX
  8
0
 10
1065.540109
 20
585.887326
 42
0.061485
  0
VERTEX
  8
0
 10
1062.923544
 20
587.883958
 42
0.025796
  0
VERTEX
  8
0
 10
1058.982017
 20
589.923053
 42
0.046892
  0
VERTEX
  8
0
 10
1055.794154
 20
591.022549
 42
0.037081
  0
VERTEX
  8
0
 10
1052.194406
 20
591.619303
 42
0.019143
  0
VERTEX
  8
0
 10
1046.786332
 20
591.900092
 42
0.003097
  0
VERTEX
  8
0
 10
1036.250000
 20
591.978038
 42
0.000000
  0
VERTEX
  8
0
 10
1018.000000
 20
592.000000
 42
0.000000
  0
SEQEND
  0
POLYLINE
  8
0
 66
1
 70
1
  0
VERTEX
  8
0
 10
1050.500000
 20
580.029231
 42
-0.103450
  0
VERTEX
  8
0
 10
1055.416413
 20
577.756817
 42
-0.116169
  0
VERTEX
  8
0
 10
1058.769328
 20
573.779049
 42
-0.117502
  0
VERTEX
  8
0
 10
1059.971435
 20
568.761153
 42
-0.107594
  0
VERTEX
  8
0
 10
1058.845874
 20
563.561076
 42
-0.092361
  0
VERTEX
  8
0
 10
1056.745072
 20
560.566312
 42
-0.106993
  0
VERTEX
  8
0
 10
1053.802120
 20
558.714277
 42
-0.063763
  0
VERTEX
  8
0
 10
1049.182137
 20
557.675502
 42
-0.014936
  0
VERTEX
  8
0
 10
1041.250000
 20
557.167608
 42
0.000000
  0
VERTEX
  8
0
 10
1030.000000
 20
556.784148
 42
0.000000
  0
VERTEX
  8
0
 10
1030.000000
 20
568.892074
 42
0.000000
  0
VERTEX
  8
0
 10
1030.000000
 20
581.000000
 42
0.000000
  0
VERTEX
  8
0
 10
1038.250000
 20
580.976143
 42
-0.009691
  0
VERTEX
  8
0
 10
1041.701938
 20
580.899244
 42
-0.008873
  0
VERTEX
  8
0
 10
1045.251562
 20
580.688147
 42
-0.008911
  0
VERTEX
  8
0
 10
1048.413220
 20
580.386991
 42
-0.028509
  0
SEQEND
  0
POLYLINE
  8
0
 66
1
 70
1
  0
VERTEX
  8
0
 10
1087.448607
 20
589.561908
 42
0.093219
  0
VERTEX
  8
0
 10
1086.423405
 20
587.096894
 42
0.109665
  0
VERTEX
  8
0
 10
1086.449196
 20
584.573010
 42
0.106728
  0
VERTEX
  8
0
 10
1087.548574
 20
582.245801
 42
0.084394
  0
VERTEX
  8
0
 10
1089.593374
 20
580.346862
 42
0.105027
  0
VERTEX
  8
0
 10
1092.072834
 20
579.383023
 42
0.112255
  0
VERTEX
  8
0
 10
1094.667309
 20
579.544369
 42
0.106734
  0
VERTEX
  8
0
 10
1097.036118
 20
580.833368
 42
0.087302
  0
VERTEX
  8
0
 10
1098.866039
 20
583.070401
 42
0.033475
  0
VERTEX
  8
0
 10
1099.573982
 20
584.556615
 42
0.093607
  0
VERTEX
  8
0
 10
1099.792111
 20
585.685057
 42
0.086616
  0
VERTEX
  8
0
 10
1099.591168
 20
586.866118
 42
0.025995
  0
VERTEX
  8
0
 10
1098.889505
 20
588.557198
 42
0.045562
  0
VERTEX
  8
0
 10
1097.969368
 20
590.105034
 42
0.104621
  0
VERTEX
  8
0
 10
1096.968480
 20
591.009637
 42
0.087857
  0
VERTEX
  8
0
 10
1095.573236
 20
591.520783
 42
0.025810
  0
VERTEX
  8
0
 10
1093.301375
 20
591.804623
 42
0.022819
  0
VERTEX
  8
0
 10
1090.986055
 20
591.867275
 42
0.087057
  0
VERTEX
  8
0
 10
1089.573479
 20
591.592305
 42
0.109318
  0
VERTEX
  8
0
 10
1088.511856
 20
590.891133
 42
0.047356
  0
SEQEND
  0
POLYLINE
  8
0
 66
1
 70
1
  0
VERTEX
  8
0
 10
1117.000000
 20
559.412613
 42
0.000000
  0
VERTEX
  8
0
 10
1117.000000
 20
526.825227
 42
0.000000
  0
VERTEX
  8
0
 10
1137.750000
 20
527.175715
 42
0.002358
  0
VERTEX
  8
0
 10
1150.225448
 20
527.445301
 42
0.019066
  0
VERTEX
  8
0
 10
1155.938830
 20
527.814033
 42
0.042058
  0
VERTEX
  8
0
 10
1159.543582
 20
528.494750
 42
0.054516
  0
VERTEX
  8
0
 10
1162.665785
 20
529.740462
 42
0.053385
  0
VERTEX
  8
0
 10
1166.526241
 20
532.354570
 42
0.074982
  0
VERTEX
  8
0
 10
1169.263306
 20
535.480204
 42
0.074547
  0
VERTEX
  8
0
 10
1170.967291
 20
539.288605
 42
0.052080
  0
VERTEX
  8
0
 10
1171.754417
 20
543.934603
 42
0.049275
  0
VERTEX
  8
0
 10
1171.593316
 20
548.574124
 42
0.069587
  0
VERTEX
  8
0
 10
1170.483213
 20
552.552248
 42
0.074716
  0
VERTEX
  8
0
 10
1168.405764
 20
555.864098
 42
0.068312
  0
VERTEX
  8
0
 10
1165.389177
 20
558.536617
 42
0.000000
  0
VERTEX
  8
0
 10
1162.278355
 20
560.613100
 42
0.000000
  0
VERTEX
  8
0
 10
1165.717025
 20
563.556550
 42
0.121222
  0
VERTEX
  8
0
 10
1168.916553
 20
568.023400
 42
0.093017
  0
VERTEX
  8
0
 10
1170.082611
 20
573.933282
 42
0.088312
  0
VERTEX
  8
0
 10
1169.037207
 20
580.140122
 42
0.094657
  0
VERTEX
  8
0
 10
1165.920630
 20
585.437616
 42
0.082077
  0
VERTEX
  8
0
 10
1161.768370
 20
588.840094
 42
0.078013
  0
VERTEX
  8
0
 10
1156.670130
 20
590.799802
 42
0.043845
  0
VERTEX
  8
0
 10
1148.991817
 20
591.753942
 42
0.008999
  0
VERTEX
  8
0
 10
1135.321861
 20
592.000000
 42
0.000000
  0
VERTEX
  8
0
 10
1117.000000
 20
592.000000
 42
0.000000
  0
SEQEND
  0
POLYLINE
  8
0
 66
1
 70
1
  0
VERTEX
  8
0
 10
1155.588872
 20
577.694236
 42
-0.062276
  0
VERTEX
  8
0
 10
1157.276283
 20
575.149369
 42
-0.107366
  0
VERTEX
  8
0
 10
1157.895508
 20
572.695654
 42
-0.121990
  0
VERTEX
  8
0
 10
1157.412714
 20
570.424860
 42
-0.095843
  0
VERTEX
  8
0
 10
1155.898213
 20
568.404988
 42
-0.094833
  0
VERTEX
  8
0
 10
1154.238752
 20
567.393899
 42
-0.051315
  0
VERTEX
  8
0
 10
1151.916903
 20
566.787216
 42
-0.026669
  0
VERTEX
  8
0
 10
1148.229698
 20
566.418329
 42
-0.004913
  0
VERTEX
  8
0
 10
1141.398213
 20
566.168443
 42
0.000000
  0
VERTEX
  8
0
 10
1129.000000
 20
565.836887
 42
0.000000
  0
VERTEX
  8
0
 10
1129.000000
 20
573.502192
 42
0.000000
  0
VERTEX
  8
0
 10
1129.000000
 20
581.167498
 42
0.000000
  0
VERTEX
  8
0
 10
1141.088872
 20
580.833749
 42
-0.003740
  0
VERTEX
  8
0
 10
1148.852336
 20
580.561287
 42
-0.042692
  0
VERTEX
  8
0
 10
1151.888927
 20
580.170793
 42
-0.100792
  0
VERTEX
  8
0
 10
1153.779157
 20
579.339939
 42
-0.061543
  0
SEQEND
  0
POLYLINE
  8
0
 66
1
 70
1
  0
VERTEX
  8
0
 10
1155.008288
 20
552.750000
 42
-0.029358
  0
VERTEX
  8
0
 10
1157.734809
 20
550.648980
 42
-0.084195
  0
VERTEX
  8
0
 10
1159.247055
 20
548.807555
 42
-0.112494
  0
VERTEX
  8
0
 10
1159.826853
 20
546.903034
 42
-0.079511
  0
VERTEX
  8
0
 10
1159.631377
 20
544.667427
 42
-0.125419
  0
VERTEX
  8
0
 10
1158.014812
 20
541.675985
 42
-0.121651
  0
VERTEX
  8
0
 10
1155.146971
 20
539.781830
 42
-0.063673
  0
VERTEX
  8
0
 10
1150.193641
 20
538.703145
 42
-0.013493
  0
VERTEX
  8
0
 10
1141.355988
 20
538.169910
 42
0.000000
  0
VERTEX
  8
0
 10
1129.000000
 20
537.758560
 42
0.000000
  0
VERTEX
  8
0
 10
1129.000000
 20
546.379280
 42
0.000000
  0
VERTEX
  8
0
 10
1129.000000
 20
555.000000
 42
0.000000
  0
VERTEX
  8
0
 10
1140.352117
 20
555.000000
 42
-0.005499
  0
VERTEX
  8
0
 10
1146.941073
 20
554.927537
 42
-0.032595
  0
VERTEX
  8
0
 10
1150.372500
 20
554.627687
 42
-0.059401
  0
VERTEX
  8
0
 10
1152.743450
 20
553.968973
 42
-0.052095
  0
SEQEND
  0
POLYLINE
  8
0
 66
1
 70
1
  0
VERTEX
  8
0
 10
854.759081
 20
572.577067
 42
0.056728
  0
VERTEX
  8
0
 10
849.169607
 20
569.834552
 42
0.074610
  0
VERTEX
  8
0
 10
844.898223
 20
566.100162
 42
0.074111
  0
VERTEX
  8
0
 10
841.891210
 20
561.255366
 42
0.055082
  0
VERTEX
  8
0
 10
840.042981
 20
555.226639
 42
0.074023
  0
VERTEX
  8
0
 10
839.694241
 20
546.434347
 42
0.085319
  0
VERTEX
  8
0
 10
841.997854
 20
538.373517
 42
0.089645
  0
VERTEX
  8
0
 10
846.729417
 20
531.848431
 42
0.092486
  0
VERTEX
  8
0
 10
853.399009
 20
527.477368
 42
0.082803
  0
VERTEX
  8
0
 10
860.085777
 20
525.908420
 42
0.053048
  0
VERTEX
  8
0
 10
868.073119
 20
526.234167
 42
0.054459
  0
VERTEX
  8
0
 10
875.391858
 20
528.146414
 42
0.129775
  0
VERTEX
  8
0
 10
879.922736
 20
531.398082
 42
0.086009
  0
VERTEX
  8
0
 10
880.539356
 20
532.478516
 42
0.184564
  0
VERTEX
  8
0
 10
880.522342
 20
533.423145
 42
0.089226
  0
VERTEX
  8
0
 10
879.802021
 20
534.569501
 42
0.011602
  0
VERTEX
  8
0
 10
877.799776
 20
536.666890
 42
0.010943
  0
VERTEX
  8
0
 10
875.557953
 20
538.812672
 42
0.103856
  0
VERTEX
  8
0
 10
874.421354
 20
539.485753
 42
0.179363
  0
VERTEX
  8
0
 10
873.379129
 20
539.457327
 42
0.047629
  0
VERTEX
  8
0
 10
871.877040
 20
538.680269
 42
-0.095368
  0
VERTEX
  8
0
 10
867.001724
 20
536.719242
 42
-0.092295
  0
VERTEX
  8
0
 10
861.687551
 20
536.675647
 42
-0.094483
  0
VERTEX
  8
0
 10
856.815615
 20
538.533265
 42
-0.105936
  0
VERTEX
  8
0
 10
853.195555
 20
542.000000
 42
-0.032809
  0
VERTEX
  8
0
 10
851.988855
 20
544.057853
 42
-0.062737
  0
VERTEX
  8
0
 10
851.351995
 20
545.861408
 42
-0.054363
  0
VERTEX
  8
0
 10
851.132633
 20
547.932621
 42
-0.019268
  0
VERTEX
  8
0
 10
851.256863
 20
550.914758
 42
-0.021709
  0
VERTEX
  8
0
 10
851.637465
 20
553.978928
 42
-0.067301
  0
VERTEX
  8
0
 10
852.254635
 20
555.964304
 42
-0.071579
  0
VERTEX
  8
0
 10
853.354182
 20
557.647335
 42
-0.026847
  0
VERTEX
  8
0
 10
855.331250
 20
559.664758
 42
-0.025262
  0
VERTEX
  8
0
 10
857.456184
 20
561.423211
 42
-0.066124
  0
VERTEX
  8
0
 10
859.182804
 20
562.386146
 42
-0.067333
  0
VERTEX
  8
0
 10
861.082297
 20
562.855445
 42
-0.026944
  0
VERTEX
  8
0
 10
863.762809
 20
563.000000
 42
-0.027498
  0
VERTEX
  8
0
 10
865.842040
 20
562.885565
 42
-0.028774
  0
VERTEX
  8
0
 10
867.864381
 20
562.543630
 42
-0.030889
  0
VERTEX
  8
0
 10
869.624418
 20
562.024568
 42
-0.065711
  0
VERTEX
  8
0
 10
870.881367
 20
561.370540
 42
0.045405
  0
VERTEX
  8
0
 10
872.367941
 20
560.518863
 42
0.189040
  0
VERTEX
  8
0
 10
873.380125
 20
560.462278
 42
0.107141
  0
VERTEX
  8
0
 10
874.490211
 20
561.114624
 42
0.010160
  0
VERTEX
  8
0
 10
876.776610
 20
563.309943
 42
0.011512
  0
VERTEX
  8
0
 10
878.792039
 20
565.420375
 42
0.088684
  0
VERTEX
  8
0
 10
879.518109
 20
566.572201
 42
0.184556
  0
VERTEX
  8
0
 10
879.537554
 20
567.518860
 42
0.086940
  0
VERTEX
  8
0
 10
878.922736
 20
568.597881
 42
0.122823
  0
VERTEX
  8
0
 10
874.794552
 20
571.639648
 42
0.056907
  0
VERTEX
  8
0
 10
868.343277
 20
573.473134
 42
0.054400
  0
VERTEX
  8
0
 10
861.162271
 20
573.865018
 42
0.072285
  0
SEQEND
  0
POLYLINE
  8
0
 66
1
 70
1
  0
VERTEX
  8
0
 10
971.500000
 20
573.119102
 42
0.059734
  0
VERTEX
  8
0
 10
966.061073
 20
570.977544
 42
0.057747
  0
VERTEX
  8
0
 10
961.214292
 20
567.591507
 42
0.059509
  0
VERTEX
  8
0
 10
957.399332
 20
563.300651
 42
0.072402
  0
VERTEX
  8
0
 10
954.998172
 20
558.494460
 42
0.043736
  0
VERTEX
  8
0
 10
954.555471
 20
556.615227
 42
0.016168
  0
VERTEX
  8
0
 10
954.252201
 20
553.909208
 42
0.015844
  0
VERTEX
  8
0
 10
954.109403
 20
550.910737
 42
0.018089
  0
VERTEX
  8
0
 10
954.167619
 20
548.039338
 42
0.018167
  0
VERTEX
  8
0
 10
954.504721
 20
544.416262
 42
0.038405
  0
VERTEX
  8
0
 10
955.081090
 20
541.656358
 42
0.041837
  0
VERTEX
  8
0
 10
956.035324
 20
539.168670
 42
0.025964
  0
VERTEX
  8
0
 10
957.540746
 20
536.424869
 42
0.136701
  0
VERTEX
  8
0
 10
965.898064
 20
528.711554
 42
0.119103
  0
VERTEX
  8
0
 10
977.504578
 20
525.913782
 42
0.119045
  0
VERTEX
  8
0
 10
989.112490
 20
528.723991
 42
0.136479
  0
VERTEX
  8
0
 10
997.472834
 20
536.446835
 42
0.025715
  0
VERTEX
  8
0
 10
999.016917
 20
539.257779
 42
0.044422
  0
VERTEX
  8
0
 10
999.961232
 20
541.750594
 42
0.039551
  0
VERTEX
  8
0
 10
1000.514818
 20
544.564288
 42
0.016189
  0
VERTEX
  8
0
 10
1000.837235
 20
548.447884
 42
0.056546
  0
VERTEX
  8
0
 10
1000.375508
 20
555.823906
 42
0.077450
  0
VERTEX
  8
0
 10
998.222788
 20
562.107124
 42
0.081836
  0
VERTEX
  8
0
 10
994.378275
 20
567.185596
 42
0.072065
  0
VERTEX
  8
0
 10
988.948221
 20
571.026416
 42
0.057298
  0
VERTEX
  8
0
 10
985.164281
 20
572.438937
 42
0.030869
  0
VERTEX
  8
0
 10
980.261528
 20
573.336588
 42
0.030901
  0
VERTEX
  8
0
 10
975.335827
 20
573.620542
 42
0.062978
  0
SEQEND
  0
POLYLINE
  8
0
 66
1
 70
1
  0
VERTEX
  8
0
 10
984.905213
 20
560.426304
 42
-0.142402
  0
VERTEX
  8
0
 10
989.042335
 20
554.225813
 42
-0.129507
  0
VERTEX
  8
0
 10
989.411538
 20
546.525185
 42
-0.135363
  0
VERTEX
  8
0
 10
985.966854
 20
539.888523
 42
-0.160738
  0
VERTEX
  8
0
 10
979.812119
 20
536.492576
 42
-0.079352
  0
VERTEX
  8
0
 10
976.412430
 20
536.400510
 42
-0.062292
  0
VERTEX
  8
0
 10
972.840125
 20
537.334471
 42
-0.063325
  0
VERTEX
  8
0
 10
969.669346
 20
539.094047
 42
-0.089652
  0
VERTEX
  8
0
 10
967.453318
 20
541.430902
 42
-0.105706
  0
VERTEX
  8
0
 10
965.450429
 20
546.603851
 42
-0.082182
  0
VERTEX
  8
0
 10
965.481972
 20
552.652815
 42
-0.086469
  0
VERTEX
  8
0
 10
967.414590
 20
558.086535
 42
-0.140610
  0
VERTEX
  8
0
 10
970.881475
 20
561.496912
 42
-0.077182
  0
VERTEX
  8
0
 10
974.342844
 20
562.735890
 42
-0.066566
  0
VERTEX
  8
0
 10
978.202418
 20
562.955120
 42
-0.067964
  0
VERTEX
  8
0
 10
981.904527
 20
562.158634
 42
-0.088196
  0
SEQEND
  0
POLYLINE
  8
0
 66
1
 70
1
  0
VERTEX
  8
0
 10
1201.838354
 20
572.818204
 42
0.089724
  0
VERTEX
  8
0
 10
1196.335968
 20
570.232974
 42
0.064988
  0
VERTEX
  8
0
 10
1191.360802
 20
565.616756
 42
0.062981
  0
VERTEX
  8
0
 10
1187.594105
 20
559.704000
 42
0.072422
  0
VERTEX
  8
0
 10
1185.638349
 20
553.309764
 42
0.125381
  0
VERTEX
  8
0
 10
1186.816222
 20
541.233278
 42
0.134828
  0
VERTEX
  8
0
 10
1193.637001
 20
531.571816
 42
0.129472
  0
VERTEX
  8
0
 10
1204.688814
 20
526.496263
 42
0.111226
  0
VERTEX
  8
0
 10
1217.500000
 20
527.118499
 42
0.086742
  0
VERTEX
  8
0
 10
1221.643559
 20
529.085036
 42
0.042332
  0
VERTEX
  8
0
 10
1226.130032
 20
532.869968
 42
0.042332
  0
VERTEX
  8
0
 10
1229.914964
 20
537.356441
 42
0.086742
  0
VERTEX
  8
0
 10
1231.881501
 20
541.500000
 42
0.118774
  0
VERTEX
  8
0
 10
1232.343079
 20
555.219025
 42
0.141384
  0
VERTEX
  8
0
 10
1226.340390
 20
566.645284
 42
0.143845
  0
VERTEX
  8
0
 10
1215.270966
 20
572.989764
 42
0.124379
  0
SEQEND
  0
POLYLINE
  8
0
 66
1
 70
1
  0
VERTEX
  8
0
 10
1217.473903
 20
559.726097
 42
-0.118344
  0
VERTEX
  8
0
 10
1220.842929
 20
554.228694
 42
-0.109904
  0
VERTEX
  8
0
 10
1221.472387
 20
547.642733
 42
-0.114617
  0
VERTEX
  8
0
 10
1219.263053
 20
541.625412
 42
-0.137764
  0
VERTEX
  8
0
 10
1214.733833
 20
537.677985
 42
-0.027708
  0
VERTEX
  8
0
 10
1211.817521
 20
536.487174
 42
-0.077409
  0
VERTEX
  8
0
 10
1209.649293
 20
536.097651
 42
-0.077319
  0
VERTEX
  8
0
 10
1207.463850
 20
536.385784
 42
-0.027598
  0
VERTEX
  8
0
 10
1204.489778
 20
537.439824
 42
-0.084786
  0
VERTEX
  8
0
 10
1201.467416
 20
539.355581
 42
-0.073300
  0
VERTEX
  8
0
 10
1199.072859
 20
542.254857
 42
-0.069987
  0
VERTEX
  8
0
 10
1197.532288
 20
545.855805
 42
-0.066008
  0
VERTEX
  8
0
 10
1197.003738
 20
549.815741
 42
-0.075824
  0
VERTEX
  8
0
 10
1197.837091
 20
555.311364
 42
-0.113211
  0
VERTEX
  8
0
 10
1200.272643
 20
559.493907
 42
-0.117934
  0
VERTEX
  8
0
 10
1204.201353
 20
562.086093
 42
-0.087077
  0
VERTEX
  8
0
 10
1209.350000
 20
562.995033
 42
-0.024756
  0
VERTEX
  8
0
 10
1212.080389
 20
562.862567
 42
-0.071266
  0
VERTEX
  8
0
 10
1213.917575
 20
562.412451
 42
-0.073416
  0
VERTEX
  8
0
 10
1215.523782
 20
561.473223
 42
-0.027432
  0
SEQEND
  0
POLYLINE
  8
0
 66
1
 70
1
  0
VERTEX
  8
0
 10
1087.000000
 20
550.000000
 42
0.000000
  0
VERTEX
  8
0
 10
1087.000000
 20
527.000000
 42
0.000000
  0
VERTEX
  8
0
 10
1093.000000
 20
527.000000
 42
0.000000
  0
VERTEX
  8
0
 10
1099.000000
 20
527.000000
 42
0.000000
  0
VERTEX
  8
0
 10
1099.000000
 20
550.000000
 42
0.000000
  0
VERTEX
  8
0
 10
1099.000000
 20
573.000000
 42
0.000000
  0
VERTEX
  8
0
 10
1093.000000
 20
573.000000
 42
0.000000
  0
VERTEX
  8
0
 10
1087.000000
 20
573.000000
 42
0.000000
  0
SEQEND
  0
POLYLINE
  8
0
 66
1
 70
1
  0
VERTEX
  8
0
 10
1245.700310
 20
571.737737
 42
0.006094
  0
VERTEX
  8
0
 10
1246.266411
 20
570.867815
 42
0.000266
  0
VERTEX
  8
0
 10
1248.282976
 20
567.853539
 42
0.000451
  0
VERTEX
  8
0
 10
1250.679605
 20
564.282249
 42
0.000322
  0
VERTEX
  8
0
 10
1253.369396
 20
560.287476
 42
0.000000
  0
VERTEX
  8
0
 10
1260.238792
 20
550.099478
 42
0.000000
  0
VERTEX
  8
0
 10
1252.162228
 20
538.549739
 42
0.000000
  0
VERTEX
  8
0
 10
1244.085665
 20
527.000000
 42
0.000000
  0
VERTEX
  8
0
 10
1250.999744
 20
527.000000
 42
0.000000
  0
VERTEX
  8
0
 10
1257.913824
 20
527.000000
 42
0.000000
  0
VERTEX
  8
0
 10
1262.867788
 20
534.687417
 42
0.000000
  0
VERTEX
  8
0
 10
1267.821752
 20
542.374834
 42
0.000000
  0
VERTEX
  8
0
 10
1272.660876
 20
534.692490
 42
0.000000
  0
VERTEX
  8
0
 10
1277.500000
 20
527.010146
 42
0.000000
  0
VERTEX
  8
0
 10
1284.285184
 20
527.005073
 42
0.018975
  0
VERTEX
  8
0
 10
1289.265225
 20
527.190401
 42
0.430887
  0
VERTEX
  8
0
 10
1290.077627
 20
528.191005
 42
0.117657
  0
VERTEX
  8
0
 10
1289.323627
 20
530.158483
 42
0.001919
  0
VERTEX
  8
0
 10
1282.570803
 20
539.943930
 42
-0.003890
  0
VERTEX
  8
0
 10
1280.052566
 20
543.624025
 42
-0.005934
  0
VERTEX
  8
0
 10
1277.930173
 20
546.860281
 42
-0.002412
  0
VERTEX
  8
0
 10
1276.164966
 20
549.652432
 42
-0.140651
  0
VERTEX
  8
0
 10
1276.000000
 20
550.227265
 42
-0.137775
  0
VERTEX
  8
0
 10
1276.163465
 20
550.809237
 42
-0.002010
  0
VERTEX
  8
0
 10
1278.056250
 20
553.884886
 42
-0.005337
  0
VERTEX
  8
0
 10
1280.317177
 20
557.440603
 42
-0.003476
  0
VERTEX
  8
0
 10
1283.000000
 20
561.500000
 42
0.002401
  0
VERTEX
  8
0
 10
1285.683211
 20
565.541062
 42
0.003781
  0
VERTEX
  8
0
 10
1287.943750
 20
569.038628
 42
0.001024
  0
VERTEX
  8
0
 10
1289.880975
 20
572.100082
 42
0.141464
  0
VERTEX
  8
0
 10
1290.000000
 20
572.512355
 42
0.393794
  0
VERTEX
  8
0
 10
1289.792564
 20
572.734892
 42
0.007048
  0
VERTEX
  8
0
 10
1288.020810
 20
572.834432
 42
0.013427
  0
VERTEX
  8
0
 10
1285.845813
 20
572.867443
 42
0.008046
  0
VERTEX
  8
0
 10
1283.262333
 20
572.795690
 42
0.000000
  0
VERTEX
  8
0
 10
1276.524666
 20
572.500000
 42
0.000000
  0
VERTEX
  8
0
 10
1272.512333
 20
565.268993
 42
-0.005550
  0
VERTEX
  8
0
 10
1270.933074
 20
562.495865
 42
-0.008758
  0
VERTEX
  8
0
 10
1269.510697
 20
560.156515
 42
-0.003514
  0
VERTEX
  8
0
 10
1268.256969
 20
558.204142
 42
-0.244641
  0
VERTEX
  8
0
 10
1267.928339
 20
558.018993
 42
-0.259107
  0
VERTEX
  8
0
 10
1267.596173
 20
558.189334
 42
-0.003373
  0
VERTEX
  8
0
 10
1266.264072
 20
560.208704
 42
-0.008699
  0
VERTEX
  8
0
 10
1264.751693
 20
562.626390
 42
-0.005475
  0
VERTEX
  8
0
 10
1263.065507
 20
565.500000
 42
0.000000
  0
VERTEX
  8
0
 10
1258.774335
 20
573.000000
 42
0.000000
  0
VERTEX
  8
0
 10
1251.837477
 20
573.000000
 42
0.007555
  0
VERTEX
  8
0
 10
1248.364788
 20
572.947523
 42
0.043183
  0
VERTEX
  8
0
 10
1246.535074
 20
572.733329
 42
0.143441
  0
VERTEX
  8
0
 10
1245.769389
 20
572.327097
 42
0.354521
  0
SEQEND
  0
POLYLINE
  8
0
 66
1
 70
1
  0
VERTEX
  8
0
 10
1401.000000
 20
537.000000
 42
0.082698
  0
VERTEX
  8
0
 10
1399.539371
 20
534.955674
 42
0.127814
  0
VERTEX
  8
0
 10
1399.108061
 20
532.839997
 42
0.118532
  0
VERTEX
  8
0
 10
1399.754455
 20
530.666784
 42
0.065175
  0
VERTEX
  8
0
 10
1401.454545
 20
528.454545
 42
0.068646
  0
VERTEX
  8
0
 10
1403.774250
 20
526.697236
 42
0.131161
  0
VERTEX
  8
0
 10
1406.023072
 20
526.122039
 42
0.129093
  0
VERTEX
  8
0
 10
1408.284112
 20
526.740969
 42
0.065453
  0
VERTEX
  8
0
 10
1410.641232
 20
528.550323
 42
0.031650
  0
VERTEX
  8
0
 10
1411.867454
 20
529.942452
 42
0.078066
  0
VERTEX
  8
0
 10
1412.521928
 20
531.131892
 42
0.091037
  0
VERTEX
  8
0
 10
1412.725265
 20
532.348261
 42
0.055184
  0
VERTEX
  8
0
 10
1412.541045
 20
533.800323
 42
0.132307
  0
VERTEX
  8
0
 10
1410.810883
 20
536.970855
 42
0.135247
  0
VERTEX
  8
0
 10
1407.735698
 20
538.811340
 42
0.134700
  0
VERTEX
  8
0
 10
1404.141836
 20
538.820911
 42
0.130807
  0
SEQEND
  0
POLYLINE
  8
0
 66
1
 70
1
  0
VERTEX
  8
0
 10
1204.354429
 20
505.307952
 42
0.107487
  0
VERTEX
  8
0
 10
1201.891702
 20
504.245420
 42
0.097968
  0
VERTEX
  8
0
 10
1199.995796
 20
502.226616
 42
0.077125
  0
VERTEX
  8
0
 10
1198.698147
 20
499.197632
 42
0.040491
  0
VERTEX
  8
0
 10
1198.003726
 20
495.149129
 42
-0.010259
  0
VERTEX
  8
0
 10
1197.627541
 20
491.725856
 42
-0.092601
  0
VERTEX
  8
0
 10
1197.163284
 20
490.299373
 42
-0.178640
  0
VERTEX
  8
0
 10
1196.326438
 20
489.568468
 42
-0.062535
  0
VERTEX
  8
0
 10
1194.750000
 20
489.183578
 42
0.042401
  0
VERTEX
  8
0
 10
1193.506339
 20
488.932367
 42
0.097060
  0
VERTEX
  8
0
 10
1192.660574
 20
488.494656
 42
0.125520
  0
VERTEX
  8
0
 10
1192.173094
 20
487.853371
 42
0.100395
  0
VERTEX
  8
0
 10
1192.000000
 20
487.000000
 42
0.100395
  0
VERTEX
  8
0
 10
1192.173094
 20
486.146629
 42
0.125520
  0
VERTEX
  8
0
 10
1192.660574
 20
485.505344
 42
0.097060
  0
VERTEX
  8
0
 10
1193.506339
 20
485.067633
 42
0.042401
  0
VERTEX
  8
0
 10
1194.750000
 20
484.816422
 42
0.000000
  0
VERTEX
  8
0
 10
1197.500000
 20
484.500000
 42
0.000000
  0
VERTEX
  8
0
 10
1197.776733
 20
469.750000
 42
0.000000
  0
VERTEX
  8
0
 10
1198.053466
 20
455.000000
 42
0.000000
  0
VERTEX
  8
0
 10
1201.026733
 20
455.000000
 42
0.000000
  0
VERTEX
  8
0
 10
1204.000000
 20
455.000000
 42
0.000000
  0
VERTEX
  8
0
 10
1204.000000
 20
470.000000
 42
0.000000
  0
VERTEX
  8
0
 10
1204.000000
 20
485.000000
 42
0.000000
  0
VERTEX
  8
0
 10
1209.500000
 20
485.000000
 42
0.009792
  0
VERTEX
  8
0
 10
1212.640147
 20
485.061504
 42
0.077556
  0
VERTEX
  8
0
 10
1214.062500
 20
485.340909
 42
0.189837
  0
VERTEX
  8
0
 10
1214.746716
 20
485.945848
 42
0.118451
  0
VERTEX
  8
0
 10
1215.000000
 20
487.000000
 42
0.118451
  0
VERTEX
  8
0
 10
1214.746716
 20
488.054152
 42
0.189837
  0
VERTEX
  8
0
 10
1214.062500
 20
488.659091
 42
0.077556
  0
VERTEX
  8
0
 10
1212.640147
 20
488.938496
 42
0.009792
  0
VERTEX
  8
0
 10
1209.500000
 20
489.000000
 42
0.000000
  0
VERTEX
  8
0
 10
1204.000000
 20
489.000000
 42
0.000000
  0
VERTEX
  8
0
 10
1204.015313
 20
493.250000
 42
-0.036856
  0
VERTEX
  8
0
 10
1204.310430
 20
497.061131
 42
-0.157527
  0
VERTEX
  8
0
 10
1205.317051
 20
499.075385
 42
-0.147869
  0
VERTEX
  8
0
 10
1207.353164
 20
500.191034
 42
-0.031236
  0
VERTEX
  8
0
 10
1211.407961
 20
500.783925
 42
0.012112
  0
VERTEX
  8
0
 10
1214.313432
 20
501.095886
 42
0.061563
  0
VERTEX
  8
0
 10
1215.885467
 20
501.504255
 42
0.134073
  0
VERTEX
  8
0
 10
1216.696125
 20
502.112475
 42
0.166658
  0
VERTEX
  8
0
 10
1217.000000
 20
502.998830
 42
0.280052
  0
VERTEX
  8
0
 10
1216.042143
 20
504.574846
 42
0.074627
  0
VERTEX
  8
0
 10
1213.141099
 20
505.567200
 42
0.055428
  0
VERTEX
  8
0
 10
1209.015751
 20
505.855914
 42
0.038092
  0
SEQEND
  0
POLYLINE
  8
0
 66
1
 70
1
  0
VERTEX
  8
0
 10
1018.866843
 20
503.979044
 42
0.076806
  0
VERTEX
  8
0
 10
1012.073697
 20
501.727403
 42
0.152689
  0
VERTEX
  8
0
 10
1008.068680
 20
497.793741
 42
0.100518
  0
VERTEX
  8
0
 10
1006.045923
 20
491.039692
 42
0.022660
  0
VERTEX
  8
0
 10
1005.500000
 20
479.000000
 42
0.004535
  0
VERTEX
  8
0
 10
1005.569534
 20
471.333381
 42
0.025323
  0
VERTEX
  8
0
 10
1005.851852
 20
467.234792
 42
0.046970
  0
VERTEX
  8
0
 10
1006.450635
 20
464.469966
 42
0.056062
  0
VERTEX
  8
0
 10
1007.535385
 20
462.035385
 42
0.068683
  0
VERTEX
  8
0
 10
1010.454343
 20
458.338206
 42
0.095697
  0
VERTEX
  8
0
 10
1013.984307
 20
456.053025
 42
0.071792
  0
VERTEX
  8
0
 10
1018.867827
 20
454.856024
 42
0.024263
  0
VERTEX
  8
0
 10
1026.200255
 20
454.500000
 42
0.012904
  0
VERTEX
  8
0
 10
1032.668101
 20
454.666950
 42
0.069829
  0
VERTEX
  8
0
 10
1036.108382
 20
455.332312
 42
0.193286
  0
VERTEX
  8
0
 10
1037.562432
 20
456.588039
 42
0.213927
  0
VERTEX
  8
0
 10
1037.664167
 20
458.432783
 42
0.199001
  0
VERTEX
  8
0
 10
1036.909730
 20
459.227699
 42
0.065885
  0
VERTEX
  8
0
 10
1035.335991
 20
459.692303
 42
0.032635
  0
VERTEX
  8
0
 10
1032.619763
 20
459.938089
 42
0.006249
  0
VERTEX
  8
0
 10
1027.666243
 20
460.000000
 42
-0.007493
  0
VERTEX
  8
0
 10
1022.506583
 20
460.077324
 42
-0.034336
  0
VERTEX
  8
0
 10
1019.527410
 20
460.372072
 42
-0.058690
  0
VERTEX
  8
0
 10
1017.471203
 20
460.973391
 42
-0.066288
  0
VERTEX
  8
0
 10
1015.701585
 20
462.020093
 42
-0.126154
  0
VERTEX
  8
0
 10
1013.487966
 20
464.912128
 42
-0.048813
  0
VERTEX
  8
0
 10
1011.961968
 20
469.763264
 42
-0.041048
  0
VERTEX
  8
0
 10
1011.181066
 20
475.969520
 42
-0.027848
  0
VERTEX
  8
0
 10
1011.270609
 20
483.096447
 42
-0.041251
  0
VERTEX
  8
0
 10
1012.557109
 20
491.568541
 42
-0.149910
  0
VERTEX
  8
0
 10
1015.282156
 20
496.211355
 42
-0.153691
  0
VERTEX
  8
0
 10
1020.095813
 20
498.462471
 42
-0.044050
  0
VERTEX
  8
0
 10
1028.420298
 20
498.832299
 42
0.006605
  0
VERTEX
  8
0
 10
1032.802400
 20
498.698884
 42
0.050829
  0
VERTEX
  8
0
 10
1034.847223
 20
498.871764
 42
0.127319
  0
VERTEX
  8
0
 10
1035.962926
 20
499.395915
 42
0.144042
  0
VERTEX
  8
0
 10
1036.621517
 20
500.374846
 42
0.155074
  0
VERTEX
  8
0
 10
1036.618991
 20
501.954657
 42
0.187262
  0
VERTEX
  8
0
 10
1035.692944
 20
503.100913
 42
0.100486
  0
VERTEX
  8
0
 10
1033.653881
 20
503.778283
 42
0.029197
  0
VERTEX
  8
0
 10
1030.331787
 20
503.984687
 42
-0.008117
  0
VERTEX
  8
0
 10
1028.638331
 20
504.018403
 42
-0.008877
  0
VERTEX
  8
0
 10
1026.996775
 20
504.106960
 42
-0.008414
  0
VERTEX
  8
0
 10
1025.597030
 20
504.231128
 42
-0.043088
  0
VERTEX
  8
0
 10
1024.831787
 20
504.379432
 42
0.073818
  0
VERTEX
  8
0
 10
1024.046679
 20
504.482221
 42
0.012460
  0
VERTEX
  8
0
 10
1022.530223
 20
504.418333
 42
0.013387
  0
VERTEX
  8
0
 10
1020.738325
 20
504.249765
 42
0.011546
  0
SEQEND
  0
POLYLINE
  8
0
 66
1
 70
1
  0
VERTEX
  8
0
 10
779.000000
 20
479.618277
 42
0.000000
  0
VERTEX
  8
0
 10
779.000000
 20
455.236554
 42
0.000000
  0
VERTEX
  8
0
 10
787.377834
 20
454.538684
 42
0.046159
  0
VERTEX
  8
0
 10
801.390376
 20
454.666827
 42
0.159013
  0
VERTEX
  8
0
 10
809.594631
 20
458.299012
 42
0.162403
  0
VERTEX
  8
0
 10
813.977076
 20
466.013256
 42
0.048697
  0
VERTEX
  8
0
 10
815.307692
 20
479.642928
 42
0.006739
  0
VERTEX
  8
0
 10
815.221775
 20
486.017725
 42
0.030534
  0
VERTEX
  8
0
 10
814.895201
 20
489.719094
 42
0.046104
  0
VERTEX
  8
0
 10
814.192716
 20
492.574908
 42
0.031733
  0
VERTEX
  8
0
 10
812.903846
 20
495.650920
 42
0.066132
  0
VERTEX
  8
0
 10
809.939737
 20
500.055959
 42
0.120195
  0
VERTEX
  8
0
 10
806.396029
 20
502.517902
 42
0.076529
  0
VERTEX
  8
0
 10
801.020684
 20
503.692772
 42
0.015575
  0
VERTEX
  8
0
 10
791.250000
 20
503.998446
 42
0.000000
  0
VERTEX
  8
0
 10
779.000000
 20
504.000000
 42
0.000000
  0
SEQEND
  0
POLYLINE
  8
0
 66
1
 70
1
  0
VERTEX
  8
0
 10
803.551062
 20
497.131942
 42
-0.106886
  0
VERTEX
  8
0
 10
806.052298
 20
494.751935
 42
-0.075058
  0
VERTEX
  8
0
 10
807.739319
 20
491.236505
 42
-0.053066
  0
VERTEX
  8
0
 10
808.702120
 20
486.272076
 42
-0.021562
  0
VERTEX
  8
0
 10
808.994423
 20
479.383980
 42
-0.019199
  0
VERTEX
  8
0
 10
808.737165
 20
472.807860
 42
-0.046350
  0
VERTEX
  8
0
 10
807.913948
 20
468.015807
 42
-0.064375
  0
VERTEX
  8
0
 10
806.475992
 20
464.530836
 42
-0.096390
  0
VERTEX
  8
0
 10
804.330697
 20
462.045486
 42
-0.061878
  0
VERTEX
  8
0
 10
802.599048
 20
461.000605
 42
-0.058793
  0
VERTEX
  8
0
 10
800.634408
 20
460.388847
 42
-0.036899
  0
VERTEX
  8
0
 10
797.885102
 20
460.083379
 42
-0.009223
  0
VERTEX
  8
0
 10
793.365141
 20
460.000000
 42
0.000000
  0
VERTEX
  8
0
 10
785.000000
 20
460.000000
 42
0.000000
  0
VERTEX
  8
0
 10
785.000000
 20
478.833333
 42
-0.003310
  0
VERTEX
  8
0
 10
785.048116
 20
486.100704
 42
-0.005233
  0
VERTEX
  8
0
 10
785.195833
 20
492.330208
 42
-0.001542
  0
VERTEX
  8
0
 10
785.396624
 20
497.716865
 42
-0.188448
  0
VERTEX
  8
0
 10
785.666667
 20
498.333333
 42
-0.168230
  0
VERTEX
  8
0
 10
786.210759
 20
498.597542
 42
-0.008347
  0
VERTEX
  8
0
 10
788.218229
 20
498.803069
 42
-0.012696
  0
VERTEX
  8
0
 10
790.654367
 20
498.949268
 42
-0.008770
  0
VERTEX
  8
0
 10
793.416667
 20
498.996262
 42
-0.014515
  0
VERTEX
  8
0
 10
796.902869
 20
498.893195
 42
-0.030845
  0
VERTEX
  8
0
 10
799.581426
 20
498.569525
 42
-0.039271
  0
VERTEX
  8
0
 10
801.727903
 20
497.997535
 42
-0.052217
  0
SEQEND
  0
POLYLINE
  8
0
 66
1
 70
1
  0
VERTEX
  8
0
 10
1046.000000
 20
482.547053
 42
0.004613
  0
VERTEX
  8
0
 10
1046.141692
 20
467.189890
 42
0.043167
  0
VERTEX
  8
0
 10
1046.832536
 20
460.617786
 42
0.117960
  0
VERTEX
  8
0
 10
1048.418380
 20
457.121707
 42
0.144668
  0
VERTEX
  8
0
 10
1051.319358
 20
455.038516
 42
0.068152
  0
VERTEX
  8
0
 10
1054.432379
 20
454.409627
 42
0.060473
  0
VERTEX
  8
0
 10
1057.733816
 20
454.599855
 42
0.081864
  0
VERTEX
  8
0
 10
1060.099392
 20
455.441222
 42
0.374156
  0
VERTEX
  8
0
 10
1060.559966
 20
456.704328
 42
-0.018242
  0
VERTEX
  8
0
 10
1060.345587
 20
457.330353
 42
-0.015534
  0
VERTEX
  8
0
 10
1060.164490
 20
458.004646
 42
-0.015813
  0
VERTEX
  8
0
 10
1060.038148
 20
458.628901
 42
-0.042042
  0
VERTEX
  8
0
 10
1060.000000
 20
459.081787
 42
0.257433
  0
VERTEX
  8
0
 10
1059.805374
 20
459.434749
 42
0.061594
  0
VERTEX
  8
0
 10
1059.177500
 20
459.730275
 42
0.048165
  0
VERTEX
  8
0
 10
1058.272665
 20
459.933209
 42
0.031103
  0
VERTEX
  8
0
 10
1057.200000
 20
460.000000
 42
-0.150097
  0
VERTEX
  8
0
 10
1054.286756
 20
460.894696
 42
-0.190859
  0
VERTEX
  8
0
 10
1052.717298
 20
463.200252
 42
-0.051620
  0
VERTEX
  8
0
 10
1052.105109
 20
468.393262
 42
-0.003549
  0
VERTEX
  8
0
 10
1052.000000
 20
483.200000
 42
0.000000
  0
VERTEX
  8
0
 10
1052.000000
 20
504.000000
 42
0.000000
  0
VERTEX
  8
0
 10
1049.000000
 20
504.000000
 42
0.000000
  0
VERTEX
  8
0
 10
1046.000000
 20
504.000000
 42
0.000000
  0
SEQEND
  0
POLYLINE
  8
0
 66
1
 70
1
  0
VERTEX
  8
0
 10
1178.000000
 20
500.000000
 42
0.012842
  0
VERTEX
  8
0
 10
1178.065399
 20
497.454178
 42
0.144246
  0
VERTEX
  8
0
 10
1178.397210
 20
496.509807
 42
0.231020
  0
VERTEX
  8
0
 10
1179.121331
 20
496.121405
 42
0.038220
  0
VERTEX
  8
0
 10
1180.750000
 20
496.183578
 42
0.043864
  0
VERTEX
  8
0
 10
1182.256936
 20
496.492549
 42
0.165614
  0
VERTEX
  8
0
 10
1183.030970
 20
497.042980
 42
0.132545
  0
VERTEX
  8
0
 10
1183.404192
 20
498.031998
 42
0.024327
  0
VERTEX
  8
0
 10
1183.500000
 20
500.000000
 42
0.024327
  0
VERTEX
  8
0
 10
1183.404192
 20
501.968002
 42
0.132545
  0
VERTEX
  8
0
 10
1183.030970
 20
502.957020
 42
0.165614
  0
VERTEX
  8
0
 10
1182.256936
 20
503.507451
 42
0.043864
  0
VERTEX
  8
0
 10
1180.750000
 20
503.816422
 42
0.038220
  0
VERTEX
  8
0
 10
1179.121331
 20
503.878595
 42
0.231020
  0
VERTEX
  8
0
 10
1178.397210
 20
503.490193
 42
0.144246
  0
VERTEX
  8
0
 10
1178.065399
 20
502.545822
 42
0.012842
  0
SEQEND
  0
POLYLINE
  8
0
 66
1
 70
1
  0
VERTEX
  8
0
 10
1278.019708
 20
502.759903
 42
0.115899
  0
VERTEX
  8
0
 10
1275.268785
 20
500.379489
 42
0.109048
  0
VERTEX
  8
0
 10
1273.789434
 20
496.970883
 42
0.045955
  0
VERTEX
  8
0
 10
1273.192725
 20
491.046888
 42
0.005791
  0
VERTEX
  8
0
 10
1273.231877
 20
478.161299
 42
0.000000
  0
VERTEX
  8
0
 10
1273.500000
 20
459.822599
 42
0.000000
  0
VERTEX
  8
0
 10
1276.305764
 20
457.411299
 42
0.060359
  0
VERTEX
  8
0
 10
1278.330927
 20
456.057216
 42
0.076676
  0
VERTEX
  8
0
 10
1280.466079
 20
455.359738
 42
0.036305
  0
VERTEX
  8
0
 10
1283.744063
 20
455.063568
 42
0.004382
  0
VERTEX
  8
0
 10
1290.996747
 20
455.000000
 42
0.007156
  0
VERTEX
  8
0
 10
1295.592665
 20
455.065777
 42
0.011084
  0
VERTEX
  8
0
 10
1299.555847
 20
455.267241
 42
0.005569
  0
VERTEX
  8
0
 10
1302.858556
 20
455.545642
 42
0.234668
  0
VERTEX
  8
0
 10
1303.444227
 20
455.909758
 42
0.098775
  0
VERTEX
  8
0
 10
1303.616500
 20
456.372114
 42
0.044764
  0
VERTEX
  8
0
 10
1303.662068
 20
457.019408
 42
0.041972
  0
VERTEX
  8
0
 10
1303.588142
 20
457.734042
 42
0.044889
  0
VERTEX
  8
0
 10
1303.396256
 20
458.409758
 42
0.199281
  0
VERTEX
  8
0
 10
1302.622848
 20
459.223784
 42
0.066635
  0
VERTEX
  8
0
 10
1301.015128
 20
459.693930
 42
0.032076
  0
VERTEX
  8
0
 10
1298.210954
 20
459.939346
 42
0.005792
  0
VERTEX
  8
0
 10
1292.974799
 20
460.000000
 42
-0.005717
  0
VERTEX
  8
0
 10
1289.101641
 20
460.044287
 42
-0.007590
  0
VERTEX
  8
0
 10
1285.580972
 20
460.178303
 42
-0.005608
  0
VERTEX
  8
0
 10
1282.646928
 20
460.367646
 42
-0.072815
  0
VERTEX
  8
0
 10
1281.581787
 20
460.606989
 42
-0.187697
  0
VERTEX
  8
0
 10
1280.788705
 20
461.327494
 42
-0.072189
  0
VERTEX
  8
0
 10
1280.315196
 20
462.765467
 42
-0.036166
  0
VERTEX
  8
0
 10
1280.064386
 20
465.223711
 42
-0.007344
  0
VERTEX
  8
0
 10
1280.000000
 20
469.606989
 42
0.000000
  0
VERTEX
  8
0
 10
1280.000000
 20
478.000000
 42
0.000000
  0
VERTEX
  8
0
 10
1290.500000
 20
478.000000
 42
0.000000
  0
VERTEX
  8
0
 10
1301.000000
 20
478.000000
 42
0.000000
  0
VERTEX
  8
0
 10
1301.000000
 20
480.500000
 42
0.000000
  0
VERTEX
  8
0
 10
1301.000000
 20
483.000000
 42
0.000000
  0
VERTEX
  8
0
 10
1290.456190
 20
483.000000
 42
0.000000
  0
VERTEX
  8
0
 10
1279.912381
 20
483.000000
 42
0.000000
  0
VERTEX
  8
0
 10
1280.206190
 20
490.250000
 42
0.000000
  0
VERTEX
  8
0
 10
1280.500000
 20
497.500000
 42
0.000000
  0
VERTEX
  8
0
 10
1291.641668
 20
497.781738
 42
0.003689
  0
VERTEX
  8
0
 10
1298.522892
 20
498.006557
 42
0.041705
  0
VERTEX
  8
0
 10
1301.227517
 20
498.342010
 42
0.127459
  0
VERTEX
  8
0
 10
1302.594337
 20
499.019728
 42
0.151431
  0
VERTEX
  8
0
 10
1303.352005
 20
500.238068
 42
0.027264
  0
VERTEX
  8
0
 10
1303.529997
 20
501.110465
 42
0.034152
  0
VERTEX
  8
0
 10
1303.594722
 20
501.933576
 42
0.036445
  0
VERTEX
  8
0
 10
1303.552472
 20
502.606955
 42
0.163272
  0
VERTEX
  8
0
 10
1303.379720
 20
502.956330
 42
0.196746
  0
VERTEX
  8
0
 10
1301.401568
 20
503.791218
 42
0.004647
  0
VERTEX
  8
0
 10
1291.148912
 20
503.807105
 42
0.006680
  0
VERTEX
  8
0
 10
1281.184605
 20
503.596778
 42
0.112492
  0
SEQEND
  0
POLYLINE
  8
0
 66
1
 70
1
  0
VERTEX
  8
0
 10
1350.000000
 20
479.500000
 42
0.000000
  0
VERTEX
  8
0
 10
1350.000000
 20
455.000000
 42
0.000000
  0
VERTEX
  8
0
 10
1353.000000
 20
455.000000
 42
0.000000
  0
VERTEX
  8
0
 10
1356.000000
 20
455.000000
 42
0.000000
  0
VERTEX
  8
0
 10
1356.000000
 20
467.483154
 42
0.000000
  0
VERTEX
  8
0
 10
1356.000000
 20
479.966308
 42
0.000000
  0
VERTEX
  8
0
 10
1360.966756
 20
482.483154
 42
-0.033425
  0
VERTEX
  8
0
 10
1364.785729
 20
484.107692
 42
-0.056195
  0
VERTEX
  8
0
 10
1368.179869
 20
484.877742
 42
-0.072881
  0
VERTEX
  8
0
 10
1370.925602
 20
484.782489
 42
-0.152469
  0
VERTEX
  8
0
 10
1372.800000
 20
483.800000
 42
-0.163032
  0
VERTEX
  8
0
 10
1373.359661
 20
482.676555
 42
-0.014783
  0
VERTEX
  8
0
 10
1373.706522
 20
479.518478
 42
-0.014560
  0
VERTEX
  8
0
 10
1373.932304
 20
475.069993
 42
-0.005398
  0
VERTEX
  8
0
 10
1374.000000
 20
468.800000
 42
0.000000
  0
VERTEX
  8
0
 10
1374.000000
 20
455.000000
 42
0.000000
  0
VERTEX
  8
0
 10
1377.000000
 20
455.000000
 42
0.000000
  0
VERTEX
  8
0
 10
1380.000000
 20
455.000000
 42
0.000000
  0
VERTEX
  8
0
 10
1380.000000
 20
470.045455
 42
0.002702
  0
VERTEX
  8
0
 10
1379.947966
 20
479.673862
 42
0.032147
  0
VERTEX
  8
0
 10
1379.668429
 20
483.390073
 42
0.084656
  0
VERTEX
  8
0
 10
1378.962471
 20
485.607209
 42
0.077210
  0
VERTEX
  8
0
 10
1377.545455
 20
487.545455
 42
0.114821
  0
VERTEX
  8
0
 10
1374.575874
 20
489.393842
 42
0.082857
  0
VERTEX
  8
0
 10
1370.712214
 20
490.028376
 42
0.069337
  0
VERTEX
  8
0
 10
1366.219126
 20
489.390570
 42
0.047545
  0
VERTEX
  8
0
 10
1361.419478
 20
487.504185
 42
-0.001853
  0
VERTEX
  8
0
 10
1359.515746
 20
486.547215
 42
-0.002909
  0
VERTEX
  8
0
 10
1357.871659
 20
485.740287
 42
-0.000772
  0
VERTEX
  8
0
 10
1356.433613
 20
485.047574
 42
-0.108073
  0
VERTEX
  8
0
 10
1356.250000
 20
485.004185
 42
-0.410614
  0
VERTEX
  8
0
 10
1356.147930
 20
485.101685
 42
-0.000681
  0
VERTEX
  8
0
 10
1356.073437
 20
487.791854
 42
-0.004114
  0
VERTEX
  8
0
 10
1356.017965
 20
490.857525
 42
-0.002466
  0
VERTEX
  8
0
 10
1356.000000
 20
494.500000
 42
0.000000
  0
VERTEX
  8
0
 10
1356.000000
 20
504.000000
 42
0.000000
  0
VERTEX
  8
0
 10
1353.000000
 20
504.000000
 42
0.000000
  0
VERTEX
  8
0
 10
1350.000000
 20
504.000000
 42
0.000000
  0
SEQEND
  0
POLYLINE
  8
0
 66
1
 70
1
  0
VERTEX
  8
0
 10
1391.389534
 20
502.572726
 42
0.081467
  0
VERTEX
  8
0
 10
1390.923025
 20
500.315821
 42
0.114963
  0
VERTEX
  8
0
 10
1391.304728
 20
498.305780
 42
0.132606
  0
VERTEX
  8
0
 10
1392.470087
 20
496.865443
 42
0.128721
  0
VERTEX
  8
0
 10
1394.215122
 20
496.186943
 42
0.041653
  0
VERTEX
  8
0
 10
1395.637230
 20
496.142081
 42
0.135361
  0
VERTEX
  8
0
 10
1396.524289
 20
496.436841
 42
0.139423
  0
VERTEX
  8
0
 10
1397.119689
 20
497.138241
 42
0.045250
  0
VERTEX
  8
0
 10
1397.572969
 20
498.434707
 42
0.030687
  0
VERTEX
  8
0
 10
1397.776573
 20
499.525401
 42
0.026728
  0
VERTEX
  8
0
 10
1397.857557
 20
500.684569
 42
0.027647
  0
VERTEX
  8
0
 10
1397.816301
 20
501.742643
 42
0.068144
  0
VERTEX
  8
0
 10
1397.639232
 20
502.497764
 42
0.212918
  0
VERTEX
  8
0
 10
1396.566729
 20
503.569021
 42
0.088543
  0
VERTEX
  8
0
 10
1394.511864
 20
503.961273
 42
0.089103
  0
VERTEX
  8
0
 10
1392.458912
 20
503.617861
 42
0.218614
  0
SEQEND
  0
POLYLINE
  8
0
 66
1
 70
1
  0
VERTEX
  8
0
 10
1408.000000
 20
480.475249
 42
0.000000
  0
VERTEX
  8
0
 10
1408.000000
 20
456.950498
 42
0.000000
  0
VERTEX
  8
0
 10
1410.626847
 20
455.951773
 42
0.040521
  0
VERTEX
  8
0
 10
1412.089055
 20
455.527629
 42
0.009736
  0
VERTEX
  8
0
 10
1414.574484
 20
455.070596
 42
0.009936
  0
VERTEX
  8
0
 10
1417.457112
 20
454.656986
 42
0.009702
  0
VERTEX
  8
0
 10
1420.376847
 20
454.354487
 42
0.058098
  0
VERTEX
  8
0
 10
1429.200863
 20
454.639001
 42
0.152171
  0
VERTEX
  8
0
 10
1434.845365
 20
457.367854
 42
0.149871
  0
VERTEX
  8
0
 10
1437.992710
 20
462.853086
 42
0.055793
  0
VERTEX
  8
0
 10
1438.996262
 20
471.782119
 42
0.036529
  0
VERTEX
  8
0
 10
1438.372250
 20
480.365210
 42
0.108495
  0
VERTEX
  8
0
 10
1436.295893
 20
485.852457
 42
0.151594
  0
VERTEX
  8
0
 10
1432.602780
 20
488.913010
 42
0.098091
  0
VERTEX
  8
0
 10
1427.115351
 20
490.000000
 42
0.036175
  0
VERTEX
  8
0
 10
1424.905213
 20
489.839887
 42
0.034331
  0
VERTEX
  8
0
 10
1422.701235
 20
489.362580
 42
0.033129
  0
VERTEX
  8
0
 10
1420.509978
 20
488.567319
 42
0.028937
  0
VERTEX
  8
0
 10
1418.337858
 20
487.457846
 42
0.000000
  0
VERTEX
  8
0
 10
1414.000000
 20
484.915692
 42
0.000000
  0
VERTEX
  8
0
 10
1414.000000
 20
494.457846
 42
0.000000
  0
VERTEX
  8
0
 10
1414.000000
 20
504.000000
 42
0.000000
  0
VERTEX
  8
0
 10
1411.000000
 20
504.000000
 42
0.000000
  0
VERTEX
  8
0
 10
1408.000000
 20
504.000000
 42
0.000000
  0
SEQEND
  0
POLYLINE
  8
0
 66
1
 70
1
  0
VERTEX
  8
0
 10
1430.545455
 20
482.545455
 42
-0.051811
  0
VERTEX
  8
0
 10
1431.854341
 20
480.933042
 42
-0.081251
  0
VERTEX
  8
0
 10
1432.574635
 20
479.303474
 42
-0.052476
  0
VERTEX
  8
0
 10
1432.912061
 20
477.058610
 42
-0.011085
  0
VERTEX
  8
0
 10
1433.000000
 20
473.092508
 42
-0.023253
  0
VERTEX
  8
0
 10
1432.745274
 20
467.618185
 42
-0.070241
  0
VERTEX
  8
0
 10
1431.884240
 20
463.993850
 42
-0.103668
  0
VERTEX
  8
0
 10
1430.297558
 20
461.572557
 42
-0.098165
  0
VERTEX
  8
0
 10
1427.843790
 20
459.935296
 42
-0.083779
  0
VERTEX
  8
0
 10
1425.219554
 20
459.333206
 42
-0.026500
  0
VERTEX
  8
0
 10
1421.186618
 20
459.311532
 42
-0.025770
  0
VERTEX
  8
0
 10
1417.216207
 20
459.706466
 42
-0.101067
  0
VERTEX
  8
0
 10
1414.917070
 20
460.551253
 42
-0.226641
  0
VERTEX
  8
0
 10
1414.552283
 20
461.118534
 42
-0.008455
  0
VERTEX
  8
0
 10
1414.269389
 20
463.708181
 42
-0.013846
  0
VERTEX
  8
0
 10
1414.066418
 20
466.865017
 42
-0.009129
  0
VERTEX
  8
0
 10
1414.000000
 20
470.502337
 42
0.000000
  0
VERTEX
  8
0
 10
1414.000000
 20
479.886641
 42
0.000000
  0
VERTEX
  8
0
 10
1418.250000
 20
482.433860
 42
-0.043224
  0
VERTEX
  8
0
 10
1422.027658
 20
484.275219
 42
-0.089759
  0
VERTEX
  8
0
 10
1425.237623
 20
484.886281
 42
-0.109796
  0
VERTEX
  8
0
 10
1428.029442
 20
484.292275
 42
-0.089498
  0
SEQEND
  0
POLYLINE
  8
0
 66
1
 70
1
  0
VERTEX
  8
0
 10
1449.189635
 20
500.250000
 42
0.020819
  0
VERTEX
  8
0
 10
1449.449458
 20
498.168909
 42
0.119894
  0
VERTEX
  8
0
 10
1449.883061
 20
497.156037
 42
0.175983
  0
VERTEX
  8
0
 10
1450.645997
 20
496.656991
 42
0.057780
  0
VERTEX
  8
0
 10
1452.000000
 20
496.500000
 42
0.057780
  0
VERTEX
  8
0
 10
1453.354003
 20
496.656991
 42
0.175983
  0
VERTEX
  8
0
 10
1454.116939
 20
497.156037
 42
0.119894
  0
VERTEX
  8
0
 10
1454.550542
 20
498.168909
 42
0.020819
  0
VERTEX
  8
0
 10
1454.810365
 20
500.250000
 42
0.015903
  0
VERTEX
  8
0
 10
1454.928726
 20
502.579145
 42
0.167055
  0
VERTEX
  8
0
 10
1454.639876
 20
503.474453
 42
0.208332
  0
VERTEX
  8
0
 10
1453.892010
 20
503.899551
 42
0.026527
  0
VERTEX
  8
0
 10
1452.000000
 20
504.000000
 42
0.026527
  0
VERTEX
  8
0
 10
1450.107990
 20
503.899551
 42
0.208332
  0
VERTEX
  8
0
 10
1449.360124
 20
503.474453
 42
0.167055
  0
VERTEX
  8
0
 10
1449.071274
 20
502.579145
 42
0.015903
  0
SEQEND
  0
POLYLINE
  8
0
 66
1
 70
1
  0
VERTEX
  8
0
 10
866.666667
 20
499.333333
 42
0.153014
  0
VERTEX
  8
0
 10
866.404985
 20
498.832800
 42
0.014358
  0
VERTEX
  8
0
 10
866.195833
 20
497.442708
 42
0.017364
  0
VERTEX
  8
0
 10
866.048624
 20
495.733197
 42
0.012795
  0
VERTEX
  8
0
 10
866.000000
 20
493.833333
 42
-0.010436
  0
VERTEX
  8
0
 10
865.935861
 20
490.760668
 42
-0.129149
  0
VERTEX
  8
0
 10
865.594828
 20
489.652778
 42
-0.219431
  0
VERTEX
  8
0
 10
864.813892
 20
489.137457
 42
-0.037836
  0
VERTEX
  8
0
 10
863.000000
 20
489.000000
 42
0.030703
  0
VERTEX
  8
0
 10
861.499083
 20
488.907747
 42
0.116834
  0
VERTEX
  8
0
 10
860.625000
 20
488.583333
 42
0.166173
  0
VERTEX
  8
0
 10
860.159458
 20
487.975317
 42
0.081208
  0
VERTEX
  8
0
 10
860.000000
 20
487.000000
 42
0.081208
  0
VERTEX
  8
0
 10
860.159458
 20
486.024683
 42
0.166173
  0
VERTEX
  8
0
 10
860.625000
 20
485.416667
 42
0.116834
  0
VERTEX
  8
0
 10
861.499083
 20
485.092253
 42
0.030703
  0
VERTEX
  8
0
 10
863.000000
 20
485.000000
 42
0.000000
  0
VERTEX
  8
0
 10
866.000000
 20
485.000000
 42
0.000000
  0
VERTEX
  8
0
 10
866.000000
 20
472.555764
 42
0.004027
  0
VERTEX
  8
0
 10
866.061626
 20
464.903882
 42
0.035279
  0
VERTEX
  8
0
 10
866.354917
 20
461.527037
 42
0.076918
  0
VERTEX
  8
0
 10
867.053028
 20
459.352902
 42
0.061780
  0
VERTEX
  8
0
 10
868.416699
 20
457.305764
 42
0.039868
  0
VERTEX
  8
0
 10
869.963897
 20
455.774982
 42
0.095180
  0
VERTEX
  8
0
 10
871.368038
 20
454.988490
 42
0.070921
  0
VERTEX
  8
0
 10
873.210717
 20
454.654722
 42
0.015237
  0
VERTEX
  8
0
 10
876.464940
 20
454.631574
 42
0.006662
  0
VERTEX
  8
0
 10
878.652790
 20
454.711866
 42
0.009928
  0
VERTEX
  8
0
 10
880.563269
 20
454.845551
 42
0.005419
  0
VERTEX
  8
0
 10
882.157635
 20
455.006414
 42
0.170115
  0
VERTEX
  8
0
 10
882.508577
 20
455.175244
 42
0.186975
  0
VERTEX
  8
0
 10
882.635623
 20
455.463039
 42
0.027236
  0
VERTEX
  8
0
 10
882.630136
 20
456.114396
 42
0.027712
  0
VERTEX
  8
0
 10
882.534557
 20
456.918615
 42
0.020522
  0
VERTEX
  8
0
 10
882.343705
 20
457.793670
 42
0.075551
  0
VERTEX
  8
0
 10
881.869094
 20
458.895916
 42
0.134691
  0
VERTEX
  8
0
 10
881.148775
 20
459.561090
 42
0.094526
  0
VERTEX
  8
0
 10
879.999320
 20
459.903294
 42
0.025221
  0
VERTEX
  8
0
 10
878.083369
 20
460.000000
 42
-0.077193
  0
VERTEX
  8
0
 10
874.689829
 20
460.527054
 42
-0.214384
  0
VERTEX
  8
0
 10
872.932939
 20
462.101017
 42
-0.095254
  0
VERTEX
  8
0
 10
872.156915
 20
465.446162
 42
-0.009505
  0
VERTEX
  8
0
 10
872.000000
 20
473.700000
 42
0.000000
  0
VERTEX
  8
0
 10
872.000000
 20
485.000000
 42
0.000000
  0
VERTEX
  8
0
 10
877.500000
 20
485.000000
 42
0.009792
  0
VERTEX
  8
0
 10
880.640147
 20
485.061504
 42
0.077556
  0
VERTEX
  8
0
 10
882.062500
 20
485.340909
 42
0.189837
  0
VERTEX
  8
0
 10
882.746716
 20
485.945848
 42
0.118451
  0
VERTEX
  8
0
 10
883.000000
 20
487.000000
 42
0.118451
  0
VERTEX
  8
0
 10
882.746716
 20
488.054152
 42
0.189837
  0
VERTEX
  8
0
 10
882.062500
 20
488.659091
 42
0.077556
  0
VERTEX
  8
0
 10
880.640147
 20
488.938496
 42
0.009792
  0
VERTEX
  8
0
 10
877.500000
 20
489.000000
 42
0.000000
  0
VERTEX
  8
0
 10
872.000000
 20
489.000000
 42
0.000000
  0
VERTEX
  8
0
 10
872.000000
 20
494.500000
 42
0.008927
  0
VERTEX
  8
0
 10
871.940642
 20
497.824285
 42
0.091635
  0
VERTEX
  8
0
 10
871.643939
 20
499.160714
 42
0.214528
  0
VERTEX
  8
0
 10
870.967207
 20
499.787271
 42
0.081245
  0
VERTEX
  8
0
 10
869.666667
 20
500.000000
 42
0.026022
  0
VERTEX
  8
0
 10
868.724524
 20
499.950933
 42
0.028659
  0
VERTEX
  8
0
 10
867.822917
 20
499.804167
 42
0.029781
  0
VERTEX
  8
0
 10
867.075903
 20
499.590804
 42
0.112380
  0
SEQEND
  0
POLYLINE
  8
0
 66
1
 70
1
  0
VERTEX
  8
0
 10
965.666667
 20
499.333333
 42
0.153014
  0
VERTEX
  8
0
 10
965.404985
 20
498.832800
 42
0.014358
  0
VERTEX
  8
0
 10
965.195833
 20
497.442708
 42
0.017364
  0
VERTEX
  8
0
 10
965.048624
 20
495.733197
 42
0.012795
  0
VERTEX
  8
0
 10
965.000000
 20
493.833333
 42
-0.010436
  0
VERTEX
  8
0
 10
964.935861
 20
490.760668
 42
-0.129149
  0
VERTEX
  8
0
 10
964.594828
 20
489.652778
 42
-0.219431
  0
VERTEX
  8
0
 10
963.813892
 20
489.137457
 42
-0.037836
  0
VERTEX
  8
0
 10
962.000000
 20
489.000000
 42
0.030703
  0
VERTEX
  8
0
 10
960.499083
 20
488.907747
 42
0.116834
  0
VERTEX
  8
0
 10
959.625000
 20
488.583333
 42
0.166173
  0
VERTEX
  8
0
 10
959.159458
 20
487.975317
 42
0.081208
  0
VERTEX
  8
0
 10
959.000000
 20
487.000000
 42
0.079774
  0
VERTEX
  8
0
 10
959.155283
 20
486.032922
 42
0.162732
  0
VERTEX
  8
0
 10
959.609910
 20
485.423655
 42
0.118931
  0
VERTEX
  8
0
 10
960.455756
 20
485.095237
 42
0.033414
  0
VERTEX
  8
0
 10
961.879280
 20
485.000000
 42
0.000000
  0
VERTEX
  8
0
 10
964.758560
 20
485.000000
 42
0.000000
  0
VERTEX
  8
0
 10
965.185602
 20
472.750000
 42
0.008110
  0
VERTEX
  8
0
 10
965.442920
 20
467.715392
 42
0.011948
  0
VERTEX
  8
0
 10
965.846009
 20
463.306826
 42
0.010840
  0
VERTEX
  8
0
 10
966.333396
 20
459.765075
 42
0.085529
  0
VERTEX
  8
0
 10
966.867124
 20
458.202132
 42
0.101698
  0
VERTEX
  8
0
 10
968.539277
 20
456.226578
 42
0.086170
  0
VERTEX
  8
0
 10
970.951891
 20
454.928016
 42
0.072241
  0
VERTEX
  8
0
 10
974.046167
 20
454.372553
 42
0.045591
  0
VERTEX
  8
0
 10
977.715879
 20
454.584644
 42
0.015276
  0
VERTEX
  8
0
 10
980.125243
 20
455.021581
 42
0.097417
  0
VERTEX
  8
0
 10
981.262000
 20
455.507793
 42
0.189177
  0
VERTEX
  8
0
 10
981.756425
 20
456.232873
 42
0.091814
  0
VERTEX
  8
0
 10
981.803618
 20
457.371584
 42
0.093856
  0
VERTEX
  8
0
 10
981.433250
 20
458.456916
 42
0.142829
  0
VERTEX
  8
0
 10
980.723602
 20
459.146470
 42
0.085104
  0
VERTEX
  8
0
 10
979.463881
 20
459.560436
 42
0.018936
  0
VERTEX
  8
0
 10
977.202506
 20
459.809819
 42
-0.097131
  0
VERTEX
  8
0
 10
973.845786
 20
460.723016
 42
-0.185575
  0
VERTEX
  8
0
 10
971.979527
 20
462.748351
 42
-0.089173
  0
VERTEX
  8
0
 10
971.183546
 20
466.681265
 42
-0.012861
  0
VERTEX
  8
0
 10
971.215663
 20
474.905414
 42
0.000000
  0
VERTEX
  8
0
 10
971.500000
 20
484.500000
 42
0.000000
  0
VERTEX
  8
0
 10
976.750000
 20
484.802260
 42
0.012168
  0
VERTEX
  8
0
 10
979.585153
 20
485.034822
 42
0.072696
  0
VERTEX
  8
0
 10
981.017698
 20
485.402619
 42
0.161186
  0
VERTEX
  8
0
 10
981.732659
 20
486.024740
 42
0.134579
  0
VERTEX
  8
0
 10
982.000000
 20
487.000000
 42
0.134579
  0
VERTEX
  8
0
 10
981.732659
 20
487.975260
 42
0.161186
  0
VERTEX
  8
0
 10
981.017698
 20
488.597381
 42
0.072696
  0
VERTEX
  8
0
 10
979.585153
 20
488.965178
 42
0.012168
  0
VERTEX
  8
0
 10
976.750000
 20
489.197740
 42
0.000000
  0
VERTEX
  8
0
 10
971.500000
 20
489.500000
 42
0.000000
  0
VERTEX
  8
0
 10
971.197740
 20
494.750000
 42
0.010876
  0
VERTEX
  8
0
 10
970.955140
 20
497.804396
 42
0.089303
  0
VERTEX
  8
0
 10
970.571892
 20
499.141486
 42
0.193041
  0
VERTEX
  8
0
 10
969.862785
 20
499.778801
 42
0.087910
  0
VERTEX
  8
0
 10
968.614407
 20
500.000000
 42
0.026593
  0
VERTEX
  8
0
 10
967.692271
 20
499.950921
 42
0.029027
  0
VERTEX
  8
0
 10
966.807565
 20
499.804167
 42
0.030242
  0
VERTEX
  8
0
 10
966.073223
 20
499.590708
 42
0.110964
  0
SEQEND
  0
POLYLINE
  8
0
 66
1
 70
1
  0
VERTEX
  8
0
 10
1469.000000
 20
494.500000
 42
-0.008002
  0
VERTEX
  8
0
 10
1468.942664
 20
490.917511
 42
-0.117370
  0
VERTEX
  8
0
 10
1468.613636
 20
489.708333
 42
-0.230406
  0
VERTEX
  8
0
 10
1467.832050
 20
489.152071
 42
-0.041432
  0
VERTEX
  8
0
 10
1466.000000
 20
489.000000
 42
0.030703
  0
VERTEX
  8
0
 10
1464.499083
 20
488.907747
 42
0.116834
  0
VERTEX
  8
0
 10
1463.625000
 20
488.583333
 42
0.166173
  0
VERTEX
  8
0
 10
1463.159458
 20
487.975317
 42
0.081208
  0
VERTEX
  8
0
 10
1463.000000
 20
487.000000
 42
0.081208
  0
VERTEX
  8
0
 10
1463.159458
 20
486.024683
 42
0.166173
  0
VERTEX
  8
0
 10
1463.625000
 20
485.416667
 42
0.116834
  0
VERTEX
  8
0
 10
1464.499083
 20
485.092253
 42
0.030703
  0
VERTEX
  8
0
 10
1466.000000
 20
485.000000
 42
0.000000
  0
VERTEX
  8
0
 10
1469.000000
 20
485.000000
 42
0.000000
  0
VERTEX
  8
0
 10
1469.000000
 20
473.047053
 42
0.008274
  0
VERTEX
  8
0
 10
1469.080962
 20
468.154885
 42
0.011506
  0
VERTEX
  8
0
 10
1469.326664
 20
463.780349
 42
0.010511
  0
VERTEX
  8
0
 10
1469.684260
 20
460.221355
 42
0.076741
  0
VERTEX
  8
0
 10
1470.147335
 20
458.575980
 42
0.125284
  0
VERTEX
  8
0
 10
1471.785025
 20
456.537469
 42
0.075779
  0
VERTEX
  8
0
 10
1474.527751
 20
455.062315
 42
0.067917
  0
VERTEX
  8
0
 10
1477.915423
 20
454.352412
 42
0.064184
  0
VERTEX
  8
0
 10
1481.437718
 20
454.554294
 42
0.026048
  0
VERTEX
  8
0
 10
1483.291694
 20
455.003141
 42
0.105286
  0
VERTEX
  8
0
 10
1484.307233
 20
455.557157
 42
0.147111
  0
VERTEX
  8
0
 10
1484.826526
 20
456.368294
 42
0.069444
  0
VERTEX
  8
0
 10
1485.000000
 20
457.611291
 42
0.059422
  0
VERTEX
  8
0
 10
1484.845447
 20
458.907170
 42
0.195484
  0
VERTEX
  8
0
 10
1484.352296
 20
459.592848
 42
0.122759
  0
VERTEX
  8
0
 10
1483.348715
 20
459.921968
 42
0.018152
  0
VERTEX
  8
0
 10
1481.200000
 20
460.000000
 42
-0.028630
  0
VERTEX
  8
0
 10
1479.657267
 20
460.088408
 42
-0.030274
  0
VERTEX
  8
0
 10
1478.163750
 20
460.352500
 42
-0.031761
  0
VERTEX
  8
0
 10
1476.915624
 20
460.737286
 42
-0.106108
  0
VERTEX
  8
0
 10
1476.200000
 20
461.200000
 42
-0.156129
  0
VERTEX
  8
0
 10
1475.658152
 20
462.251965
 42
-0.017546
  0
VERTEX
  8
0
 10
1475.303097
 20
464.951069
 42
-0.016824
  0
VERTEX
  8
0
 10
1475.071311
 20
468.681088
 42
-0.007104
  0
VERTEX
  8
0
 10
1475.000000
 20
473.700000
 42
0.000000
  0
VERTEX
  8
0
 10
1475.000000
 20
485.000000
 42
0.000000
  0
VERTEX
  8
0
 10
1480.500000
 20
485.000000
 42
0.009792
  0
VERTEX
  8
0
 10
1483.640147
 20
485.061504
 42
0.077556
  0
VERTEX
  8
0
 10
1485.062500
 20
485.340909
 42
0.189837
  0
VERTEX
  8
0
 10
1485.746716
 20
485.945848
 42
0.118451
  0
VERTEX
  8
0
 10
1486.000000
 20
487.000000
 42
0.118451
  0
VERTEX
  8
0
 10
1485.746716
 20
488.054152
 42
0.189837
  0
VERTEX
  8
0
 10
1485.062500
 20
488.659091
 42
0.077556
  0
VERTEX
  8
0
 10
1483.640147
 20
488.938496
 42
0.009792
  0
VERTEX
  8
0
 10
1480.500000
 20
489.000000
 42
0.000000
  0
VERTEX
  8
0
 10
1475.000000
 20
489.000000
 42
0.000000
  0
VERTEX
  8
0
 10
1475.000000
 20
494.500000
 42
0.008002
  0
VERTEX
  8
0
 10
1474.942664
 20
498.082489
 42
0.117370
  0
VERTEX
  8
0
 10
1474.613636
 20
499.291667
 42
0.230406
  0
VERTEX
  8
0
 10
1473.832050
 20
499.847929
 42
0.041432
  0
VERTEX
  8
0
 10
1472.000000
 20
500.000000
 42
0.041432
  0
VERTEX
  8
0
 10
1470.167950
 20
499.847929
 42
0.230406
  0
VERTEX
  8
0
 10
1469.386364
 20
499.291667
 42
0.117370
  0
VERTEX
  8
0
 10
1469.057336
 20
498.082489
 42
0.008002
  0
SEQEND
  0
POLYLINE
  8
0
 66
1
 70
1
  0
VERTEX
  8
0
 10
830.189824
 20
487.974365
 42
0.084443
  0
VERTEX
  8
0
 10
827.393698
 20
485.541717
 42
0.078112
  0
VERTEX
  8
0
 10
825.468294
 20
482.258658
 42
0.062684
  0
VERTEX
  8
0
 10
824.362872
 20
477.916779
 42
0.031844
  0
VERTEX
  8
0
 10
824.021962
 20
472.282119
 42
0.063245
  0
VERTEX
  8
0
 10
825.192484
 20
463.298187
 42
0.146521
  0
VERTEX
  8
0
 10
828.693739
 20
457.546970
 42
0.145479
  0
VERTEX
  8
0
 10
834.799502
 20
454.642300
 42
0.062025
  0
VERTEX
  8
0
 10
843.932386
 20
454.357098
 42
0.007494
  0
VERTEX
  8
0
 10
849.658093
 20
454.975926
 42
0.064795
  0
VERTEX
  8
0
 10
852.138809
 20
455.614798
 42
0.198075
  0
VERTEX
  8
0
 10
853.149868
 20
456.600216
 42
0.167267
  0
VERTEX
  8
0
 10
853.263599
 20
458.099996
 42
0.108631
  0
VERTEX
  8
0
 10
852.735175
 20
459.134650
 42
0.171058
  0
VERTEX
  8
0
 10
851.890021
 20
459.645123
 42
0.071021
  0
VERTEX
  8
0
 10
850.351912
 20
459.741712
 42
0.008392
  0
VERTEX
  8
0
 10
846.933546
 20
459.412972
 42
-0.032911
  0
VERTEX
  8
0
 10
840.084449
 20
459.091788
 42
-0.100791
  0
VERTEX
  8
0
 10
835.570704
 20
460.100400
 42
-0.134720
  0
VERTEX
  8
0
 10
832.565742
 20
462.573298
 42
-0.081269
  0
VERTEX
  8
0
 10
830.536738
 20
466.750000
 42
-0.135548
  0
VERTEX
  8
0
 10
830.510485
 20
468.025473
 42
-0.275520
  0
VERTEX
  8
0
 10
831.195570
 20
468.708948
 42
-0.058672
  0
VERTEX
  8
0
 10
833.138832
 20
468.961644
 42
-0.003025
  0
VERTEX
  8
0
 10
839.478067
 20
469.000000
 42
0.005987
  0
VERTEX
  8
0
 10
845.254067
 20
469.069165
 42
0.044208
  0
VERTEX
  8
0
 10
847.989493
 20
469.377670
 42
0.086504
  0
VERTEX
  8
0
 10
849.806448
 20
470.089191
 42
0.059965
  0
VERTEX
  8
0
 10
851.545455
 20
471.454545
 42
0.045978
  0
VERTEX
  8
0
 10
852.740920
 20
472.892699
 42
0.066918
  0
VERTEX
  8
0
 10
853.483849
 20
474.362599
 42
0.057906
  0
VERTEX
  8
0
 10
853.876885
 20
476.131317
 42
0.025750
  0
VERTEX
  8
0
 10
854.000000
 20
478.520287
 42
0.020753
  0
VERTEX
  8
0
 10
853.920542
 20
480.433790
 42
0.019639
  0
VERTEX
  8
0
 10
853.682606
 20
482.370001
 42
0.020036
  0
VERTEX
  8
0
 10
853.336148
 20
484.065080
 42
0.062510
  0
VERTEX
  8
0
 10
852.919509
 20
485.150400
 42
0.180182
  0
VERTEX
  8
0
 10
849.486792
 20
488.178543
 42
0.060753
  0
VERTEX
  8
0
 10
842.907781
 20
489.823200
 42
0.059107
  0
VERTEX
  8
0
 10
835.703368
 20
489.863055
 42
0.109172
  0
SEQEND
  0
POLYLINE
  8
0
 66
1
 70
1
  0
VERTEX
  8
0
 10
846.481522
 20
483.375621
 42
-0.078935
  0
VERTEX
  8
0
 10
847.156624
 20
482.445515
 42
-0.055991
  0
VERTEX
  8
0
 10
847.609727
 20
481.236040
 42
-0.048576
  0
VERTEX
  8
0
 10
847.828589
 20
479.783039
 42
-0.033961
  0
VERTEX
  8
0
 10
847.802950
 20
478.125621
 42
0.000000
  0
VERTEX
  8
0
 10
847.500000
 20
474.500000
 42
0.000000
  0
VERTEX
  8
0
 10
838.750000
 20
474.211067
 42
-0.005854
  0
VERTEX
  8
0
 10
834.082214
 20
474.111622
 42
-0.036064
  0
VERTEX
  8
0
 10
831.685214
 20
474.261636
 42
-0.089518
  0
VERTEX
  8
0
 10
830.437261
 20
474.665741
 42
-0.276509
  0
VERTEX
  8
0
 10
830.000000
 20
475.395967
 42
-0.070265
  0
VERTEX
  8
0
 10
830.297284
 20
477.500986
 42
-0.035002
  0
VERTEX
  8
0
 10
831.223918
 20
480.035012
 42
-0.034819
  0
VERTEX
  8
0
 10
832.463017
 20
482.357207
 42
-0.090637
  0
VERTEX
  8
0
 10
833.736157
 20
483.750000
 42
-0.129689
  0
VERTEX
  8
0
 10
836.223666
 20
484.776961
 42
-0.040762
  0
VERTEX
  8
0
 10
840.278786
 20
484.988483
 42
-0.040269
  0
VERTEX
  8
0
 10
844.272281
 20
484.547984
 42
-0.149868
  0
SEQEND
  0
POLYLINE
  8
0
 66
1
 70
1
  0
VERTEX
  8
0
 10
896.096399
 20
488.735258
 42
0.075833
  0
VERTEX
  8
0
 10
892.999162
 20
486.495480
 42
0.091443
  0
VERTEX
  8
0
 10
890.942407
 20
483.558626
 42
0.069777
  0
VERTEX
  8
0
 10
889.720985
 20
479.454151
 42
0.027027
  0
VERTEX
  8
0
 10
889.151820
 20
473.535444
 42
0.010910
  0
VERTEX
  8
0
 10
889.065895
 20
469.241437
 42
0.028955
  0
VERTEX
  8
0
 10
889.248965
 20
466.178844
 42
0.038823
  0
VERTEX
  8
0
 10
889.731336
 20
463.739213
 42
0.042589
  0
VERTEX
  8
0
 10
890.575959
 20
461.481171
 42
0.120470
  0
VERTEX
  8
0
 10
893.789694
 20
457.530110
 42
0.091610
  0
VERTEX
  8
0
 10
898.794698
 20
455.016299
 42
0.072401
  0
VERTEX
  8
0
 10
905.450757
 20
454.090572
 42
0.042101
  0
VERTEX
  8
0
 10
913.500000
 20
454.821093
 42
0.024940
  0
VERTEX
  8
0
 10
915.448371
 20
455.266066
 42
0.074918
  0
VERTEX
  8
0
 10
916.688777
 20
455.825896
 42
0.111202
  0
VERTEX
  8
0
 10
917.427860
 20
456.579323
 42
0.103226
  0
VERTEX
  8
0
 10
917.797761
 20
457.597185
 42
0.163139
  0
VERTEX
  8
0
 10
917.590621
 20
458.731772
 42
0.213838
  0
VERTEX
  8
0
 10
916.758806
 20
459.358179
 42
0.054503
  0
VERTEX
  8
0
 10
914.737892
 20
459.592085
 42
0.003905
  0
VERTEX
  8
0
 10
909.083255
 20
459.583722
 42
-0.021078
  0
VERTEX
  8
0
 10
902.686378
 20
459.794006
 42
-0.093996
  0
VERTEX
  8
0
 10
899.075591
 20
460.764046
 42
-0.144624
  0
VERTEX
  8
0
 10
896.889755
 20
462.748519
 42
-0.076937
  0
VERTEX
  8
0
 10
895.478822
 20
466.153661
 42
0.000000
  0
VERTEX
  8
0
 10
894.831543
 20
468.807322
 42
0.000000
  0
VERTEX
  8
0
 10
905.005597
 20
469.153661
 42
0.005476
  0
VERTEX
  8
0
 10
911.040345
 20
469.425290
 42
0.041136
  0
VERTEX
  8
0
 10
913.871338
 20
469.818921
 42
0.087664
  0
VERTEX
  8
0
 10
915.628282
 20
470.551956
 42
0.080264
  0
VERTEX
  8
0
 10
917.089825
 20
471.860784
 42
0.136633
  0
VERTEX
  8
0
 10
918.956917
 20
476.171951
 42
0.095130
  0
VERTEX
  8
0
 10
918.676639
 20
481.497796
 42
0.097426
  0
VERTEX
  8
0
 10
916.466922
 20
486.234402
 42
0.152317
  0
VERTEX
  8
0
 10
912.881161
 20
488.891583
 42
0.059590
  0
VERTEX
  8
0
 10
909.109664
 20
489.720678
 42
0.026672
  0
VERTEX
  8
0
 10
904.027687
 20
489.944526
 42
0.025684
  0
VERTEX
  8
0
 10
899.110683
 20
489.645846
 42
0.090923
  0
SEQEND
  0
POLYLINE
  8
0
 66
1
 70
1
  0
VERTEX
  8
0
 10
911.415347
 20
483.093540
 42
-0.065724
  0
VERTEX
  8
0
 10
912.124819
 20
482.066029
 42
-0.052939
  0
VERTEX
  8
0
 10
912.607162
 20
480.812289
 42
-0.048888
  0
VERTEX
  8
0
 10
912.843017
 20
479.385214
 42
-0.040424
  0
VERTEX
  8
0
 10
912.820335
 20
477.843540
 42
0.000000
  0
VERTEX
  8
0
 10
912.500000
 20
474.500000
 42
0.000000
  0
VERTEX
  8
0
 10
903.612514
 20
474.209062
 42
0.000000
  0
VERTEX
  8
0
 10
894.725029
 20
473.918124
 42
0.000000
  0
VERTEX
  8
0
 10
895.332100
 20
477.709062
 42
-0.073873
  0
VERTEX
  8
0
 10
896.371749
 20
480.996842
 42
-0.117715
  0
VERTEX
  8
0
 10
898.235410
 20
483.263685
 42
-0.107650
  0
VERTEX
  8
0
 10
901.055858
 20
484.570452
 42
-0.054905
  0
VERTEX
  8
0
 10
904.955796
 20
485.000000
 42
-0.023156
  0
VERTEX
  8
0
 10
907.245379
 20
484.893910
 42
-0.048634
  0
VERTEX
  8
0
 10
908.992772
 20
484.558217
 42
-0.062163
  0
VERTEX
  8
0
 10
910.344563
 20
483.968828
 42
-0.075119
  0
SEQEND
  0
POLYLINE
  8
0
 66
1
 70
1
  0
VERTEX
  8
0
 10
934.000000
 20
488.300764
 42
0.084497
  0
VERTEX
  8
0
 10
930.813959
 20
485.909860
 42
0.087218
  0
VERTEX
  8
0
 10
928.639905
 20
482.623404
 42
0.069489
  0
VERTEX
  8
0
 10
927.398061
 20
478.165433
 42
0.033190
  0
VERTEX
  8
0
 10
927.001554
 20
472.217881
 42
0.044759
  0
VERTEX
  8
0
 10
927.791106
 20
463.394255
 42
0.143407
  0
VERTEX
  8
0
 10
930.404455
 20
458.166571
 42
0.153296
  0
VERTEX
  8
0
 10
935.300117
 20
455.375644
 42
0.053528
  0
VERTEX
  8
0
 10
943.456021
 20
454.500000
 42
0.010372
  0
VERTEX
  8
0
 10
949.526769
 20
454.625951
 42
0.060760
  0
VERTEX
  8
0
 10
952.669978
 20
455.142429
 42
0.168313
  0
VERTEX
  8
0
 10
954.088257
 20
456.150105
 42
0.222363
  0
VERTEX
  8
0
 10
954.371367
 20
457.688828
 42
0.165505
  0
VERTEX
  8
0
 10
953.749532
 20
458.630361
 42
0.112094
  0
VERTEX
  8
0
 10
952.573805
 20
459.177874
 42
0.046335
  0
VERTEX
  8
0
 10
950.403299
 20
459.439495
 42
0.006838
  0
VERTEX
  8
0
 10
945.979341
 20
459.500000
 42
-0.008840
  0
VERTEX
  8
0
 10
941.488168
 20
459.579409
 42
-0.046125
  0
VERTEX
  8
0
 10
939.035753
 20
459.893905
 42
-0.079105
  0
VERTEX
  8
0
 10
937.341084
 20
460.566082
 42
-0.062417
  0
VERTEX
  8
0
 10
935.780351
 20
461.777778
 42
-0.062902
  0
VERTEX
  8
0
 10
934.563733
 20
463.344322
 42
-0.079556
  0
VERTEX
  8
0
 10
933.891402
 20
465.047818
 42
-0.045777
  0
VERTEX
  8
0
 10
933.578353
 20
467.526291
 42
-0.008538
  0
VERTEX
  8
0
 10
933.500000
 20
472.114361
 42
-0.007574
  0
VERTEX
  8
0
 10
933.574801
 20
477.052402
 42
-0.057935
  0
VERTEX
  8
0
 10
933.911909
 20
479.344378
 42
-0.102623
  0
VERTEX
  8
0
 10
934.706251
 20
480.922559
 42
-0.047434
  0
VERTEX
  8
0
 10
936.305764
 20
482.586584
 42
-0.047236
  0
VERTEX
  8
0
 10
938.090762
 20
483.850064
 42
-0.070029
  0
VERTEX
  8
0
 10
939.866656
 20
484.562949
 42
-0.048394
  0
VERTEX
  8
0
 10
942.213393
 20
484.906088
 42
-0.012120
  0
VERTEX
  8
0
 10
946.087148
 20
485.000000
 42
0.009965
  0
VERTEX
  8
0
 10
949.592427
 20
485.069864
 42
0.040345
  0
VERTEX
  8
0
 10
951.712025
 20
485.326527
 42
0.074010
  0
VERTEX
  8
0
 10
952.997737
 20
485.794247
 42
0.178804
  0
VERTEX
  8
0
 10
953.654923
 20
486.543128
 42
0.166113
  0
VERTEX
  8
0
 10
953.709730
 20
488.016229
 42
0.232182
  0
VERTEX
  8
0
 10
952.827628
 20
488.966313
 42
0.072971
  0
VERTEX
  8
0
 10
950.479896
 20
489.492600
 42
0.008789
  0
VERTEX
  8
0
 10
945.170469
 20
489.796961
 42
0.012239
  0
VERTEX
  8
0
 10
941.238213
 20
489.856774
 42
0.030981
  0
VERTEX
  8
0
 10
938.387611
 20
489.653445
 42
0.040863
  0
VERTEX
  8
0
 10
936.102602
 20
489.154861
 42
0.044698
  0
SEQEND
  0
POLYLINE
  8
0
 66
1
 70
1
  0
VERTEX
  8
0
 10
1070.250000
 20
489.276604
 42
0.029632
  0
VERTEX
  8
0
 10
1068.583861
 20
488.968744
 42
0.113325
  0
VERTEX
  8
0
 10
1067.647568
 20
488.495906
 42
0.151981
  0
VERTEX
  8
0
 10
1067.161572
 20
487.747291
 42
0.068646
  0
VERTEX
  8
0
 10
1067.000000
 20
486.575988
 42
0.126431
  0
VERTEX
  8
0
 10
1067.333164
 20
485.279475
 42
0.222439
  0
VERTEX
  8
0
 10
1068.209394
 20
484.640613
 42
0.057818
  0
VERTEX
  8
0
 10
1070.202077
 20
484.487408
 42
0.003371
  0
VERTEX
  8
0
 10
1076.302637
 20
484.765281
 42
-0.018244
  0
VERTEX
  8
0
 10
1083.078492
 20
484.872172
 42
-0.102902
  0
VERTEX
  8
0
 10
1086.585030
 20
484.066687
 42
-0.191778
  0
VERTEX
  8
0
 10
1088.368637
 20
482.193731
 42
-0.095795
  0
VERTEX
  8
0
 10
1089.000000
 20
478.928571
 42
0.000000
  0
VERTEX
  8
0
 10
1089.000000
 20
476.000000
 42
0.000000
  0
VERTEX
  8
0
 10
1079.610784
 20
476.000000
 42
0.020302
  0
VERTEX
  8
0
 10
1072.099572
 20
475.694889
 42
0.115797
  0
VERTEX
  8
0
 10
1068.323866
 20
474.478076
 42
0.174132
  0
VERTEX
  8
0
 10
1066.279123
 20
471.968347
 42
0.060839
  0
VERTEX
  8
0
 10
1065.259804
 20
467.352034
 42
0.050947
  0
VERTEX
  8
0
 10
1065.288029
 20
462.657302
 42
0.098329
  0
VERTEX
  8
0
 10
1066.407959
 20
459.085569
 42
0.114909
  0
VERTEX
  8
0
 10
1068.654118
 20
456.569014
 42
0.087791
  0
VERTEX
  8
0
 10
1072.006678
 20
454.998202
 42
0.062951
  0
VERTEX
  8
0
 10
1075.626146
 20
454.498116
 42
0.054833
  0
VERTEX
  8
0
 10
1079.435887
 20
454.872661
 42
0.054490
  0
VERTEX
  8
0
 10
1083.096825
 20
456.071358
 42
0.060377
  0
VERTEX
  8
0
 10
1086.277182
 20
458.003391
 42
-0.012909
  0
VERTEX
  8
0
 10
1088.455524
 20
459.627638
 42
-0.189544
  0
VERTEX
  8
0
 10
1089.367405
 20
459.851024
 42
-0.337735
  0
VERTEX
  8
0
 10
1089.876860
 20
459.341141
 42
-0.033404
  0
VERTEX
  8
0
 10
1090.000000
 20
457.500000
 42
0.045527
  0
VERTEX
  8
0
 10
1090.115743
 20
456.231486
 42
0.152009
  0
VERTEX
  8
0
 10
1090.500000
 20
455.500000
 42
0.152009
  0
VERTEX
  8
0
 10
1091.231486
 20
455.115743
 42
0.045527
  0
VERTEX
  8
0
 10
1092.500000
 20
455.000000
 42
0.000000
  0
VERTEX
  8
0
 10
1095.000000
 20
455.000000
 42
0.000000
  0
VERTEX
  8
0
 10
1095.000000
 20
469.576923
 42
0.000000
  0
VERTEX
  8
0
 10
1095.000000
 20
484.153846
 42
0.000000
  0
VERTEX
  8
0
 10
1092.076923
 20
487.076923
 42
0.037628
  0
VERTEX
  8
0
 10
1090.123368
 20
488.756661
 42
0.096138
  0
VERTEX
  8
0
 10
1088.444255
 20
489.553871
 42
0.059814
  0
VERTEX
  8
0
 10
1086.148900
 20
489.858852
 42
0.008264
  0
VERTEX
  8
0
 10
1081.326923
 20
489.839963
 42
0.003822
  0
VERTEX
  8
0
 10
1078.092007
 20
489.749079
 42
0.003771
  0
VERTEX
  8
0
 10
1074.844471
 20
489.608461
 42
0.003706
  0
VERTEX
  8
0
 10
1072.002298
 20
489.442784
 42
0.014458
  0
SEQEND
  0
POLYLINE
  8
0
 66
1
 70
1
  0
VERTEX
  8
0
 10
1089.000000
 20
468.020324
 42
-0.029559
  0
VERTEX
  8
0
 10
1088.861597
 20
465.681236
 42
-0.118011
  0
VERTEX
  8
0
 10
1088.368498
 20
464.343424
 42
-0.106390
  0
VERTEX
  8
0
 10
1087.294675
 20
463.300621
 42
-0.021758
  0
VERTEX
  8
0
 10
1084.978569
 20
461.989067
 42
-0.059461
  0
VERTEX
  8
0
 10
1079.431624
 20
459.945631
 42
-0.131366
  0
VERTEX
  8
0
 10
1074.955595
 20
460.066757
 42
-0.185290
  0
VERTEX
  8
0
 10
1072.090748
 20
462.266017
 42
-0.138286
  0
VERTEX
  8
0
 10
1071.000000
 20
466.134426
 42
-0.130453
  0
VERTEX
  8
0
 10
1071.704788
 20
468.789761
 42
-0.143549
  0
VERTEX
  8
0
 10
1073.617131
 20
470.632126
 42
-0.090518
  0
VERTEX
  8
0
 10
1077.009434
 20
471.685463
 42
-0.030141
  0
VERTEX
  8
0
 10
1082.222506
 20
472.000000
 42
0.000000
  0
VERTEX
  8
0
 10
1089.000000
 20
472.000000
 42
0.000000
  0
SEQEND
  0
POLYLINE
  8
0
 66
1
 70
1
  0
VERTEX
  8
0
 10
1106.454545
 20
487.545455
 42
0.045732
  0
VERTEX
  8
0
 10
1105.270758
 20
486.122767
 42
0.065426
  0
VERTEX
  8
0
 10
1104.525386
 20
484.662386
 42
0.057809
  0
VERTEX
  8
0
 10
1104.126474
 20
482.925646
 42
0.027578
  0
VERTEX
  8
0
 10
1104.000000
 20
480.634348
 42
0.091864
  0
VERTEX
  8
0
 10
1104.725634
 20
476.718155
 42
0.122784
  0
VERTEX
  8
0
 10
1106.790763
 20
473.768255
 42
0.093985
  0
VERTEX
  8
0
 10
1110.478060
 20
471.616416
 42
0.037472
  0
VERTEX
  8
0
 10
1116.148333
 20
470.071942
 42
-0.021833
  0
VERTEX
  8
0
 10
1121.274942
 20
468.846250
 42
-0.064961
  0
VERTEX
  8
0
 10
1124.583464
 20
467.415814
 42
-0.112602
  0
VERTEX
  8
0
 10
1126.360782
 20
465.719513
 42
-0.183898
  0
VERTEX
  8
0
 10
1126.811269
 20
463.711834
 42
-0.165585
  0
VERTEX
  8
0
 10
1125.690414
 20
461.511808
 42
-0.113516
  0
VERTEX
  8
0
 10
1123.274343
 20
460.045948
 42
-0.066476
  0
VERTEX
  8
0
 10
1119.271490
 20
459.290558
 42
-0.021684
  0
VERTEX
  8
0
 10
1113.247666
 20
459.227900
 42
0.004424
  0
VERTEX
  8
0
 10
1108.039622
 20
459.353507
 42
0.060651
  0
VERTEX
  8
0
 10
1106.161421
 20
459.153882
 42
0.208768
  0
VERTEX
  8
0
 10
1105.318058
 20
458.527710
 42
0.131139
  0
VERTEX
  8
0
 10
1104.997666
 20
457.321956
 42
0.108572
  0
VERTEX
  8
0
 10
1105.257381
 20
456.146018
 42
0.167081
  0
VERTEX
  8
0
 10
1105.972128
 20
455.401155
 42
0.076704
  0
VERTEX
  8
0
 10
1107.447495
 20
454.909258
 42
0.011103
  0
VERTEX
  8
0
 10
1110.592621
 20
454.445161
 42
0.031666
  0
VERTEX
  8
0
 10
1115.907116
 20
454.120644
 42
0.026062
  0
VERTEX
  8
0
 10
1121.581777
 20
454.429854
 42
0.025793
  0
VERTEX
  8
0
 10
1126.618565
 20
455.232984
 42
0.092851
  0
VERTEX
  8
0
 10
1129.608184
 20
456.478928
 42
0.130010
  0
VERTEX
  8
0
 10
1131.381134
 20
458.451360
 42
0.076291
  0
VERTEX
  8
0
 10
1132.389803
 20
461.481591
 42
0.069480
  0
VERTEX
  8
0
 10
1132.496003
 20
464.984361
 42
0.071962
  0
VERTEX
  8
0
 10
1131.632205
 20
468.337831
 42
0.080359
  0
VERTEX
  8
0
 10
1130.174343
 20
470.683164
 42
0.100760
  0
VERTEX
  8
0
 10
1128.145520
 20
472.236492
 42
0.052265
  0
VERTEX
  8
0
 10
1124.709362
 20
473.483599
 42
0.008361
  0
VERTEX
  8
0
 10
1117.738184
 20
475.093792
 42
-0.023239
  0
VERTEX
  8
0
 10
1113.528871
 20
476.198906
 42
-0.103907
  0
VERTEX
  8
0
 10
1111.315087
 20
477.438036
 42
-0.161625
  0
VERTEX
  8
0
 10
1110.302454
 20
479.154650
 42
-0.081844
  0
VERTEX
  8
0
 10
1110.177742
 20
481.689528
 42
0.000000
  0
VERTEX
  8
0
 10
1110.500000
 20
484.500000
 42
0.000000
  0
VERTEX
  8
0
 10
1120.642206
 20
484.783793
 42
0.004839
  0
VERTEX
  8
0
 10
1126.475051
 20
485.003511
 42
0.038371
  0
VERTEX
  8
0
 10
1129.153123
 20
485.337394
 42
0.100220
  0
VERTEX
  8
0
 10
1130.563171
 20
485.934400
 42
0.180610
  0
VERTEX
  8
0
 10
1131.276031
 20
486.947542
 42
0.251991
  0
VERTEX
  8
0
 10
1130.911847
 20
488.449212
 42
0.153885
  0
VERTEX
  8
0
 10
1129.302244
 20
489.400524
 42
0.049704
  0
VERTEX
  8
0
 10
1125.690025
 20
489.869438
 42
0.007074
  0
VERTEX
  8
0
 10
1118.204545
 20
489.986345
 42
0.006353
  0
VERTEX
  8
0
 10
1112.644249
 20
489.923863
 42
0.045251
  0
VERTEX
  8
0
 10
1109.971237
 20
489.616778
 42
0.086575
  0
VERTEX
  8
0
 10
1108.180185
 20
488.906511
 42
0.058853
  0
SEQEND
  0
POLYLINE
  8
0
 66
1
 70
1
  0
VERTEX
  8
0
 10
1142.634859
 20
487.927420
 42
0.045637
  0
VERTEX
  8
0
 10
1141.306257
 20
486.670383
 42
0.083269
  0
VERTEX
  8
0
 10
1140.520814
 20
485.405541
 42
0.071343
  0
VERTEX
  8
0
 10
1140.121082
 20
483.820937
 42
0.026171
  0
VERTEX
  8
0
 10
1140.000000
 20
481.509207
 42
0.012802
  0
VERTEX
  8
0
 10
1140.045646
 20
479.726773
 42
0.013143
  0
VERTEX
  8
0
 10
1140.182472
 20
477.964590
 42
0.012979
  0
VERTEX
  8
0
 10
1140.380746
 20
476.444825
 42
0.052729
  0
VERTEX
  8
0
 10
1140.621181
 20
475.544802
 42
0.139073
  0
VERTEX
  8
0
 10
1141.833630
 20
473.925774
 42
0.054174
  0
VERTEX
  8
0
 10
1144.249275
 20
472.466570
 42
0.040234
  0
VERTEX
  8
0
 10
1147.776933
 20
471.159912
 42
0.019002
  0
VERTEX
  8
0
 10
1152.500000
 20
470.022554
 42
-0.022640
  0
VERTEX
  8
0
 10
1157.165525
 20
468.863095
 42
-0.056249
  0
VERTEX
  8
0
 10
1160.400092
 20
467.490839
 42
-0.087085
  0
VERTEX
  8
0
 10
1162.330487
 20
465.906217
 42
-0.179316
  0
VERTEX
  8
0
 10
1163.000000
 20
464.099392
 42
-0.159590
  0
VERTEX
  8
0
 10
1162.276311
 20
461.889797
 42
-0.148327
  0
VERTEX
  8
0
 10
1160.366030
 20
460.457780
 42
-0.071618
  0
VERTEX
  8
0
 10
1156.738139
 20
459.700548
 42
-0.015696
  0
VERTEX
  8
0
 10
1150.351311
 20
459.500000
 42
0.003935
  0
VERTEX
  8
0
 10
1144.461222
 20
459.453650
 42
0.053347
  0
VERTEX
  8
0
 10
1142.329962
 20
459.191623
 42
0.189447
  0
VERTEX
  8
0
 10
1141.375075
 20
458.533601
 42
0.148891
  0
VERTEX
  8
0
 10
1141.003786
 20
457.321956
 42
0.108525
  0
VERTEX
  8
0
 10
1141.260020
 20
456.145574
 42
0.167737
  0
VERTEX
  8
0
 10
1141.972148
 20
455.400879
 42
0.076844
  0
VERTEX
  8
0
 10
1143.445571
 20
454.909358
 42
0.011075
  0
VERTEX
  8
0
 10
1146.592621
 20
454.445161
 42
0.030796
  0
VERTEX
  8
0
 10
1151.513783
 20
454.136075
 42
0.021730
  0
VERTEX
  8
0
 10
1157.051730
 20
454.370480
 42
0.020784
  0
VERTEX
  8
0
 10
1162.093790
 20
455.015919
 42
0.080804
  0
VERTEX
  8
0
 10
1165.061402
 20
456.032862
 42
0.146582
  0
VERTEX
  8
0
 10
1166.730416
 20
457.692190
 42
0.063150
  0
VERTEX
  8
0
 10
1167.879587
 20
460.645516
 42
0.058597
  0
VERTEX
  8
0
 10
1168.326805
 20
464.123238
 42
0.070174
  0
VERTEX
  8
0
 10
1167.901506
 20
467.394546
 42
0.104230
  0
VERTEX
  8
0
 10
1166.551035
 20
470.006956
 42
0.094632
  0
VERTEX
  8
0
 10
1164.220269
 20
471.959293
 42
0.059578
  0
VERTEX
  8
0
 10
1160.416424
 20
473.520908
 42
0.017445
  0
VERTEX
  8
0
 10
1154.260973
 20
474.998927
 42
-0.021695
  0
VERTEX
  8
0
 10
1149.751748
 20
476.122274
 42
-0.101314
  0
VERTEX
  8
0
 10
1147.401115
 20
477.374486
 42
-0.164245
  0
VERTEX
  8
0
 10
1146.324705
 20
479.115270
 42
-0.085806
  0
VERTEX
  8
0
 10
1146.177742
 20
481.689528
 42
0.000000
  0
VERTEX
  8
0
 10
1146.500000
 20
484.500000
 42
0.000000
  0
VERTEX
  8
0
 10
1156.750000
 20
484.784983
 42
0.004237
  0
VERTEX
  8
0
 10
1162.777312
 20
485.003695
 42
0.040362
  0
VERTEX
  8
0
 10
1165.332505
 20
485.325873
 42
0.127383
  0
VERTEX
  8
0
 10
1166.540710
 20
485.923736
 42
0.217822
  0
VERTEX
  8
0
 10
1167.000000
 20
486.927994
 42
0.192584
  0
VERTEX
  8
0
 10
1166.372627
 20
488.496411
 42
0.142912
  0
VERTEX
  8
0
 10
1164.742123
 20
489.442737
 42
0.053005
  0
VERTEX
  8
0
 10
1161.428912
 20
489.896339
 42
0.007538
  0
VERTEX
  8
0
 10
1154.553071
 20
490.000000
 42
0.007591
  0
VERTEX
  8
0
 10
1149.418991
 20
489.922053
 42
0.035469
  0
VERTEX
  8
0
 10
1146.478336
 20
489.623229
 42
0.060440
  0
VERTEX
  8
0
 10
1144.436038
 20
489.007299
 42
0.063302
  0
SEQEND
  0
POLYLINE
  8
0
 66
1
 70
1
  0
VERTEX
  8
0
 10
1178.000000
 20
472.000000
 42
0.000000
  0
VERTEX
  8
0
 10
1178.000000
 20
455.000000
 42
0.000000
  0
VERTEX
  8
0
 10
1181.000000
 20
455.000000
 42
0.000000
  0
VERTEX
  8
0
 10
1184.000000
 20
455.000000
 42
0.000000
  0
VERTEX
  8
0
 10
1184.000000
 20
472.000000
 42
0.000000
  0
VERTEX
  8
0
 10
1184.000000
 20
489.000000
 42
0.000000
  0
VERTEX
  8
0
 10
1181.000000
 20
489.000000
 42
0.000000
  0
VERTEX
  8
0
 10
1178.000000
 20
489.000000
 42
0.000000
  0
SEQEND
  0
POLYLINE
  8
0
 66
1
 70
1
  0
VERTEX
  8
0
 10
1218.000000
 20
488.709611
 42
0.095513
  0
VERTEX
  8
0
 10
1218.483805
 20
486.200065
 42
0.001306
  0
VERTEX
  8
0
 10
1224.351827
 20
471.656874
 42
0.000984
  0
VERTEX
  8
0
 10
1230.382489
 20
456.905651
 42
0.132965
  0
VERTEX
  8
0
 10
1231.545529
 20
455.389757
 42
-0.041902
  0
VERTEX
  8
0
 10
1232.102026
 20
454.885962
 42
-0.040695
  0
VERTEX
  8
0
 10
1232.572749
 20
454.291760
 42
-0.043630
  0
VERTEX
  8
0
 10
1232.897324
 20
453.699620
 42
-0.103924
  0
VERTEX
  8
0
 10
1233.000000
 20
453.210959
 42
-0.180813
  0
VERTEX
  8
0
 10
1232.368199
 20
451.520969
 42
-0.019841
  0
VERTEX
  8
0
 10
1229.480525
 20
448.453394
 42
-0.020037
  0
VERTEX
  8
0
 10
1226.358082
 20
445.625978
 42
-0.175722
  0
VERTEX
  8
0
 10
1224.631923
 20
445.000000
 42
0.110538
  0
VERTEX
  8
0
 10
1223.978893
 20
444.853845
 42
0.111973
  0
VERTEX
  8
0
 10
1223.453990
 20
444.443613
 42
0.099764
  0
VERTEX
  8
0
 10
1223.115858
 20
443.802796
 42
0.071787
  0
VERTEX
  8
0
 10
1223.000000
 20
443.000000
 42
0.083351
  0
VERTEX
  8
0
 10
1223.165479
 20
442.014228
 42
0.170505
  0
VERTEX
  8
0
 10
1223.646427
 20
441.407658
 42
0.113737
  0
VERTEX
  8
0
 10
1224.560103
 20
441.088421
 42
0.027417
  0
VERTEX
  8
0
 10
1226.171417
 20
441.000000
 42
0.065814
  0
VERTEX
  8
0
 10
1227.926355
 20
441.232004
 42
0.068563
  0
VERTEX
  8
0
 10
1229.534541
 20
441.911534
 42
0.050637
  0
VERTEX
  8
0
 10
1231.256963
 20
443.188310
 42
0.018576
  0
VERTEX
  8
0
 10
1233.421417
 20
445.313418
 42
0.059025
  0
VERTEX
  8
0
 10
1236.367708
 20
449.274660
 42
0.028487
  0
VERTEX
  8
0
 10
1239.205027
 20
454.935315
 42
0.011973
  0
VERTEX
  8
0
 10
1243.183432
 20
464.789028
 42
0.001290
  0
VERTEX
  8
0
 10
1251.780295
 20
487.823440
 42
0.179789
  0
VERTEX
  8
0
 10
1251.779628
 20
488.403261
 42
0.223779
  0
VERTEX
  8
0
 10
1251.398301
 20
488.775670
 42
0.088905
  0
VERTEX
  8
0
 10
1250.496976
 20
488.917352
 42
0.018505
  0
VERTEX
  8
0
 10
1248.891565
 20
488.823440
 42
0.000000
  0
VERTEX
  8
0
 10
1245.512788
 20
488.500000
 42
0.000000
  0
VERTEX
  8
0
 10
1240.632168
 20
474.250000
 42
-0.003783
  0
VERTEX
  8
0
 10
1238.714663
 20
468.786623
 42
-0.006172
  0
VERTEX
  8
0
 10
1236.996322
 20
464.185938
 42
-0.001610
  0
VERTEX
  8
0
 10
1235.448790
 20
460.231478
 42
-0.307846
  0
VERTEX
  8
0
 10
1235.108456
 20
460.000000
 42
-0.305430
  0
VERTEX
  8
0
 10
1234.765999
 20
460.230717
 42
-0.001594
  0
VERTEX
  8
0
 10
1233.177589
 20
464.185938
 42
-0.006130
  0
VERTEX
  8
0
 10
1231.411983
 20
468.786638
 42
-0.003758
  0
VERTEX
  8
0
 10
1229.438358
 20
474.250000
 42
0.002772
  0
VERTEX
  8
0
 10
1226.097595
 20
483.555290
 42
0.041095
  0
VERTEX
  8
0
 10
1224.646692
 20
486.699209
 42
0.130103
  0
VERTEX
  8
0
 10
1223.235657
 20
488.144901
 42
0.110784
  0
VERTEX
  8
0
 10
1221.205677
 20
488.813358
 42
0.012109
  0
VERTEX
  8
0
 10
1219.976501
 20
488.903525
 42
0.020343
  0
VERTEX
  8
0
 10
1218.941668
 20
488.912143
 42
0.015605
  0
VERTEX
  8
0
 10
1218.137655
 20
488.860971
 42
0.386721
  0
SEQEND
  0
POLYLINE
  8
0
 66
1
 70
1
  0
VERTEX
  8
0
 10
1310.615129
 20
487.750000
 42
0.011443
  0
VERTEX
  8
0
 10
1311.092914
 20
486.976527
 42
0.001184
  0
VERTEX
  8
0
 10
1312.263747
 20
485.183969
 42
0.001473
  0
VERTEX
  8
0
 10
1313.670127
 20
483.055574
 42
0.001177
  0
VERTEX
  8
0
 10
1315.197896
 20
480.769896
 42
-0.004599
  0
VERTEX
  8
0
 10
1316.712632
 20
478.469802
 42
-0.005680
  0
VERTEX
  8
0
 10
1318.079857
 20
476.297774
 42
-0.004727
  0
VERTEX
  8
0
 10
1319.188689
 20
474.452122
 42
-0.041307
  0
VERTEX
  8
0
 10
1319.603001
 20
473.592180
 42
-0.193642
  0
VERTEX
  8
0
 10
1319.588184
 20
472.674375
 42
-0.015371
  0
VERTEX
  8
0
 10
1318.555397
 20
470.419050
 42
-0.019064
  0
VERTEX
  8
0
 10
1317.093913
 20
467.732936
 42
-0.013390
  0
VERTEX
  8
0
 10
1315.256099
 20
464.822284
 42
0.001532
  0
VERTEX
  8
0
 10
1310.437535
 20
457.577316
 42
0.070421
  0
VERTEX
  8
0
 10
1309.673465
 20
455.967875
 42
0.440180
  0
VERTEX
  8
0
 10
1310.103381
 20
455.228522
 42
0.054135
  0
VERTEX
  8
0
 10
1312.190983
 20
455.005073
 42
0.073888
  0
VERTEX
  8
0
 10
1314.204426
 20
455.307402
 42
0.114179
  0
VERTEX
  8
0
 10
1315.721221
 20
456.183780
 42
0.056821
  0
VERTEX
  8
0
 10
1317.341895
 20
458.084718
 42
0.007593
  0
VERTEX
  8
0
 10
1320.220796
 20
462.505073
 42
-0.008552
  0
VERTEX
  8
0
 10
1322.099329
 20
465.377379
 42
-0.013031
  0
VERTEX
  8
0
 10
1323.836318
 20
467.798365
 42
-0.007587
  0
VERTEX
  8
0
 10
1325.353493
 20
469.738804
 42
-0.226780
  0
VERTEX
  8
0
 10
1325.899756
 20
470.000000
 42
-0.227834
  0
VERTEX
  8
0
 10
1326.444718
 20
469.738082
 42
-0.007649
  0
VERTEX
  8
0
 10
1327.949607
 20
467.796875
 42
-0.013105
  0
VERTEX
  8
0
 10
1329.671655
 20
465.374254
 42
-0.008597
  0
VERTEX
  8
0
 10
1331.532465
 20
462.500000
 42
0.007412
  0
VERTEX
  8
0
 10
1334.421626
 20
458.014072
 42
0.059100
  0
VERTEX
  8
0
 10
1336.015143
 20
456.141528
 42
0.118726
  0
VERTEX
  8
0
 10
1337.535336
 20
455.288564
 42
0.068851
  0
VERTEX
  8
0
 10
1339.620963
 20
455.000000
 42
0.000000
  0
VERTEX
  8
0
 10
1343.034917
 20
455.000000
 42
0.000000
  0
VERTEX
  8
0
 10
1337.517458
 20
463.241099
 42
-0.005720
  0
VERTEX
  8
0
 10
1335.403421
 20
466.478214
 42
-0.008333
  0
VERTEX
  8
0
 10
1333.620753
 20
469.383090
 42
-0.004700
  0
VERTEX
  8
0
 10
1332.189481
 20
471.857816
 42
-0.129454
  0
VERTEX
  8
0
 10
1332.000000
 20
472.577397
 42
-0.121965
  0
VERTEX
  8
0
 10
1332.174180
 20
473.280832
 42
-0.006105
  0
VERTEX
  8
0
 10
1333.315589
 20
475.381781
 42
-0.009517
  0
VERTEX
  8
0
 10
1334.762837
 20
477.857997
 42
-0.006718
  0
VERTEX
  8
0
 10
1336.478602
 20
480.586298
 42
0.004411
  0
VERTEX
  8
0
 10
1338.196330
 20
483.289961
 42
0.006558
  0
VERTEX
  8
0
 10
1339.647901
 20
485.689413
 42
0.003183
  0
VERTEX
  8
0
 10
1340.836661
 20
487.743765
 42
0.123037
  0
VERTEX
  8
0
 10
1340.978602
 20
488.250000
 42
0.300026
  0
VERTEX
  8
0
 10
1340.798966
 20
488.540097
 42
0.045814
  0
VERTEX
  8
0
 10
1340.125583
 20
488.779688
 42
0.038618
  0
VERTEX
  8
0
 10
1339.175751
 20
488.945737
 42
0.023973
  0
VERTEX
  8
0
 10
1338.044658
 20
489.000000
 42
0.087228
  0
VERTEX
  8
0
 10
1336.287331
 20
488.691073
 42
0.107737
  0
VERTEX
  8
0
 10
1334.884081
 20
487.806063
 42
0.055392
  0
VERTEX
  8
0
 10
1333.375534
 20
485.951228
 42
0.009017
  0
VERTEX
  8
0
 10
1330.930692
 20
482.000000
 42
-0.008121
  0
VERTEX
  8
0
 10
1329.277354
 20
479.317226
 42
-0.012488
  0
VERTEX
  8
0
 10
1327.751947
 20
477.056250
 42
-0.006915
  0
VERTEX
  8
0
 10
1326.415698
 20
475.232474
 42
-0.235368
  0
VERTEX
  8
0
 10
1325.949204
 20
475.000000
 42
-0.231604
  0
VERTEX
  8
0
 10
1325.478639
 20
475.230323
 42
-0.006712
  0
VERTEX
  8
0
 10
1324.101062
 20
477.053735
 42
-0.012237
  0
VERTEX
  8
0
 10
1322.525733
 20
479.311960
 42
-0.007967
  0
VERTEX
  8
0
 10
1320.813170
 20
481.991438
 42
0.008490
  0
VERTEX
  8
0
 10
1318.188563
 20
486.088455
 42
0.060372
  0
VERTEX
  8
0
 10
1316.658921
 20
487.877741
 42
0.115868
  0
VERTEX
  8
0
 10
1315.185153
 20
488.706301
 42
0.069831
  0
VERTEX
  8
0
 10
1313.190983
 20
488.991438
 42
0.019585
  0
VERTEX
  8
0
 10
1311.657920
 20
488.935338
 42
0.093613
  0
VERTEX
  8
0
 10
1310.815998
 20
488.709182
 42
0.242331
  0
VERTEX
  8
0
 10
1310.513613
 20
488.308258
 42
0.177107
  0
SEQEND
  0
POLYLINE
  8
0
 66
1
 70
1
  0
VERTEX
  8
0
 10
1391.000000
 20
472.000000
 42
0.000000
  0
VERTEX
  8
0
 10
1391.000000
 20
455.000000
 42
0.000000
  0
VERTEX
  8
0
 10
1394.000000
 20
455.000000
 42
0.000000
  0
VERTEX
  8
0
 10
1397.000000
 20
455.000000
 42
0.000000
  0
VERTEX
  8
0
 10
1397.000000
 20
472.000000
 42
0.000000
  0
VERTEX
  8
0
 10
1397.000000
 20
489.000000
 42
0.000000
  0
VERTEX
  8
0
 10
1394.000000
 20
489.000000
 42
0.000000
  0
VERTEX
  8
0
 10
1391.000000
 20
489.000000
 42
0.000000
  0
SEQEND
  0
POLYLINE
  8
0
 66
1
 70
1
  0
VERTEX
  8
0
 10
1449.000000
 20
472.000000
 42
0.000000
  0
VERTEX
  8
0
 10
1449.000000
 20
455.000000
 42
0.000000
  0
VERTEX
  8
0
 10
1452.000000
 20
455.000000
 42
0.000000
  0
VERTEX
  8
0
 10
1455.000000
 20
455.000000
 42
0.000000
  0
VERTEX
  8
0
 10
1455.000000
 20
472.000000
 42
0.000000
  0
VERTEX
  8
0
 10
1455.000000
 20
489.000000
 42
0.000000
  0
VERTEX
  8
0
 10
1452.000000
 20
489.000000
 42
0.000000
  0
VERTEX
  8
0
 10
1449.000000
 20
489.000000
 42
0.000000
  0
SEQEND
  0
POLYLINE
  8
0
 66
1
 70
1
  0
VERTEX
  8
0
 10
989.189635
 20
459.250000
 42
0.023391
  0
VERTEX
  8
0
 10
989.459557
 20
457.174887
 42
0.116506
  0
VERTEX
  8
0
 10
989.922583
 20
456.103967
 42
0.154163
  0
VERTEX
  8
0
 10
990.744993
 20
455.510833
 42
0.051072
  0
VERTEX
  8
0
 10
992.215122
 20
455.186943
 42
0.041653
  0
VERTEX
  8
0
 10
993.637230
 20
455.142081
 42
0.135361
  0
VERTEX
  8
0
 10
994.524289
 20
455.436841
 42
0.139423
  0
VERTEX
  8
0
 10
995.119689
 20
456.138241
 42
0.045250
  0
VERTEX
  8
0
 10
995.572969
 20
457.434707
 42
0.054596
  0
VERTEX
  8
0
 10
995.921074
 20
459.963054
 42
0.151686
  0
VERTEX
  8
0
 10
995.442291
 20
461.670816
 42
0.174061
  0
VERTEX
  8
0
 10
994.139959
 20
462.664379
 42
0.076912
  0
VERTEX
  8
0
 10
991.971020
 20
463.000000
 42
0.027174
  0
VERTEX
  8
0
 10
990.102163
 20
462.898357
 42
0.208953
  0
VERTEX
  8
0
 10
989.358405
 20
462.471870
 42
0.165793
  0
VERTEX
  8
0
 10
989.071437
 20
461.574689
 42
0.015889
  0
SEQEND
  0
POLYLINE
  8
0
 66
1
 70
1
  0
VERTEX
  8
0
 10
1256.415233
 20
461.639697
 42
0.052408
  0
VERTEX
  8
0
 10
1256.217946
 20
460.903084
 42
0.023266
  0
VERTEX
  8
0
 10
1256.106940
 20
459.902086
 42
0.022724
  0
VERTEX
  8
0
 10
1256.086969
 20
458.821564
 42
0.028454
  0
VERTEX
  8
0
 10
1256.170919
 20
457.822726
 42
0.062177
  0
VERTEX
  8
0
 10
1256.484702
 20
456.666193
 42
0.144105
  0
VERTEX
  8
0
 10
1257.041588
 20
455.970984
 42
0.117984
  0
VERTEX
  8
0
 10
1257.968305
 20
455.606949
 42
0.034869
  0
VERTEX
  8
0
 10
1259.500000
 20
455.500000
 42
0.032088
  0
VERTEX
  8
0
 10
1261.239808
 20
455.611769
 42
0.185552
  0
VERTEX
  8
0
 10
1262.035714
 20
456.041667
 42
0.157079
  0
VERTEX
  8
0
 10
1262.411937
 20
456.938974
 42
0.021354
  0
VERTEX
  8
0
 10
1262.500000
 20
459.000000
 42
0.024329
  0
VERTEX
  8
0
 10
1262.404134
 20
460.969050
 42
0.132776
  0
VERTEX
  8
0
 10
1262.030525
 20
461.957720
 42
0.165608
  0
VERTEX
  8
0
 10
1261.255393
 20
462.507880
 42
0.043650
  0
VERTEX
  8
0
 10
1259.744314
 20
462.816971
 42
0.041776
  0
VERTEX
  8
0
 10
1258.541341
 20
462.854297
 42
0.071980
  0
VERTEX
  8
0
 10
1257.560460
 20
462.659344
 42
0.091869
  0
VERTEX
  8
0
 10
1256.844008
 20
462.246147
 42
0.125156
  0
SEQEND
  0
ENDSEC
  0
EOF
